<?xml version="1.0" encoding="UTF-8"?>
<svg version="1.1" viewBox="0 0 2048 597" width="3820" height="1115" xmlns="http://www.w3.org/2000/svg">
<path transform="translate(0)" d="m0 0h2048v597h-2048z" fill="#FCFCFC"/>
<path transform="translate(0)" d="m0 0h478l-2 9-7 11-11 11-16 11-16 9-29 14-32 13-52 20-21 8-35 14-30 13-21 10-22 12-18 12-13 10-10 9-10 11-8 13-5 12-11 43-12 39-8 22-9 21-9 19-10 17-10 14-12 13-8 7-11 7-10 4-10 2z" fill="#DE2A54"/>
<path transform="translate(2047,192)" d="m0 0h1v405h-443l5-5 12-10 19-14 14-10 10-6 17-8 33-11 55-15 35-10 25-8 20-7 26-11 27-14 16-11 9-7 14-12 9-10 10-14 9-16 7-19 4-18 6-49 6-30 8-27 8-19 9-17 7-9 8-9 10-7z" fill="#24ABA5"/>
<path transform="translate(861,75)" d="m0 0 7 6 8 10 7 12 13-1h11l9 2 2 1 2-6 8-15 6-9 4 2 7 8 12 19 10 19 8 19 6 20 1 6v13l-3 12-6 11-11 11-16 9-8 4 6 8 8 10 8 15 4 16v22l-4 18-8 19-11 23-5 17-1 5v27l6 15 10 18 15 23v2l10-3 20-9 17-10 13-10 10-9 9-10 8-13 5-13 2-12-1-13-5-15-8-12-13-16-9-11-12-14-11-14-10-15-6-13-3-10-1-8v-12l3-19 4-12 6-10 9-10 9-8 14-7 10-2h10l14 3 12 5 11 7 10 10 5 10 1 3v14l-7 14-9 10-8 7-4 3-2-1 5-12 1-5v-8l-3-12-7-10-11-7-13-3h-10l-11 3-8 4-6 5-7 11-3 9-1 5v15l4 15 6 12 8 10 12 11 19 13 13 10 11 10 9 12 6 13 4 14 1 7v30l-4 13-6 10-8 10-8 8-15 11-15 9-25 12-19 7-24 7-23 5-15 2h-28l-17-3-18-6-19-10-11-9-8-8-9-14-5-12-3-16v-25l3-15 4-11 7-13 8-10 18-20 8-10 8-13 5-12 4-16 1-11v-15l-2-7-11-8-15-10-10-8-9-12-4-12-1-7v-13l3-17 8-24 12-23 9-13z" fill="#FCFCFB"/>
<path transform="translate(923,93)" d="m0 0m11-18 4 2 7 8 12 19 10 19 8 19 6 20 1 6v13l-3 12-6 11-11 11-16 9-8 4 6 8 8 10 8 15 4 16v22l-4 18-8 19-11 23-5 17-1 5v27l6 15 10 18 15 23v2l10-3 20-9 17-10 13-10 10-9 9-10 8-13 5-13 2-12-1-13-5-15-8-12-13-16-9-11-12-14-11-14-10-15-6-13-3-10-1-8v-12l3-19 4-12 6-10 9-10 9-8 14-7 10-2h10l14 3 12 5 11 7 10 10 5 10 1 3v14l-7 14-9 10-8 7-4 3-2-1 5-12 1-5v-8l-3-12-7-10-11-7-13-3h-10l-11 3-8 4-6 5-7 11-3 9-1 5v15l4 15 6 12 8 10 12 11 19 13 13 10 11 10 9 12 6 13 4 14 1 7v30l-4 13-6 10-8 10-8 8-15 11-15 9-25 12-19 7-24 7-23 5-15 2h-28l-17-3-18-6-19-10-11-9-8-8-9-14-5-12-3-16v-25l3-15 4-11 7-13 8-10 9-10 5-5 5-4-2 4-13 17-1 2h-2v3h-2l-1 4-6 11-5 12-3 10-1 13 3 3-1 8v15l6 15v2l4 2 4 9 2 5 16-1 1 2-1 2h-2v2l-6 2 3 3 13 4 5 5 14 4 12 2-1-3 4-10 2 4-1 1v8l7 1h16l23-3 22-5 4-1-1-4-5-5-9-12-6-10-9-20-5-16-1-6v-16l4-15 8-17 7-12 6-11 6-15 2-8v-23l-4-15-7-13-1-3-7 1-1-2-6-1-2-6h-2l-1-6 2-7h2l1-3 9-2 4-2-9-3 2-2 16-1 9-8 8-11 4-10 1-4v-21h-3l1-2 2 1-4-13v-3l-2-1-6-12-5-9v-2h-2l-5-10-11-17-3-7v-3l-8 6-5 6h-2l2-5 6-10z" fill="#000101"/>
<path transform="translate(861,75)" d="m0 0 7 6 8 10 7 12 13-1h11l9 2 2 1 2-6 4-6 5-5 8-7h2l5 12 11 17 3 5v3h2l4 7 1 6-15 4-5 1-3 2-9 5-9 6-10 9-7 8-8 13-6 13-4 2-1-4h-4v3l3 1-1 6h2l1-5 3 1-3 14v11h-1l1 9 1 12-1 2h2l1 4 6 17 4 7v2h-2l-5-9v-3h-2l-6-13v-5h-2l-5-17-3-15v-36l2-13 1-5 8-24 8-16 8-13-13 1-3 9-7 15-2 1v2l-2-1 1-4 2-16-4 2v-13l-5-10-8-7h-3l-2 5 5 12 4 13 3 16v24l-3 19h-2l-3-19-5-15-8-15-6-8h-2l-8 15-5 14-2 18 3 16 1 6 4 2 9 8 11 15 1 3 15 10 8 6 1 6v20l4 2 4 5-4 8 1 5 1 1h10 3l6 13 2 7 2 6v6l-3 3v5l3-2v6l-5 1 1 5 2 4-1 3h-2l-1 8-8 11-7 6-12 6-4 1h-10l-9-2-6-3-3-2v-3l-7-1-3-4 2-3-1-7v-4l12-16 2-4 4-6 8-11 8-16 5-19 1-11v-15l-2-7-11-8-15-10-10-8-9-12-4-12-1-7v-13l3-17 8-24 12-23 9-13z" fill="#010404"/>
<path transform="translate(515,271)" d="m0 0h16l12 3 14 7 9 8 6 10 2 8v10l-3 8-6 5-6 1-7-3-4-7-1-7 2-5 2-2h8l5 3-1-7-4-8-10-8-11-5-10-2-18 2-12 5-9 6-7 8-8 14-5 13-3 15v28l3 16 6 15 7 11 9 9 12 7 10 3h19l13-4 15-8 1-35h-34l-1-1v-8h74l1 1v7l-1 1h-16v40l6 9 1 7h-9l-3-8-5-4-9-1-20 10-16 4h-18l-16-4-16-8-9-7v-2l-3-1-11-14-8-16-4-13-1-5v-29l4-16 5-12 9-14 11-12 12-9 12-5 11-3z" fill="#000202"/>
<path transform="translate(1555,271)" d="m0 0h9l8 4v4l-5 4-7-3-1 152 5-5 1-2 5-1 3 1-1 7-6 7-7 3-10-1-6-4-5 2-8 3h-11l-9-4-8-7-4-6-3-9v-14l4-10 6-8 8-6 6-2h10l10 4v-95l5-8 8-5z"/>
<path transform="translate(1346,363)" d="m0 0h19v16l10-3h9l10 4 6 5 5 7 3 9v16l-4 11-8 9-8 4-4 1h-11l-8-3v69h-20v-144z"/>
<path transform="translate(937,81)" d="m0 0h2l5 12 11 17 3 5v3h2l4 7 1 6-15 4-5 1-3 2-9 5-9 6-10 9-7 8-8 13-6 13-4 2-1-4h-4v3l3 1-1 6h2l1-5 3 1-3 14v11h-1l1 9 1 12-1 2h2l1 4 6 17 4 7v2h-2l-5-9v-3h-2l-6-13v-5h-2l-5-17-3-15v-36l2-13 1-5 8-24 8-16 7-11 1-1 9 1 9 5h1l-1-4v-7l2-3 2-6 7-8z" fill="#DE2F52"/>
<path transform="translate(1234,376)" d="m0 0h8l8 4 3 4 4-2 9-5 4-1h8l7 3 2 2 5-1 6-3 5-1h8l8 3 5 4 3 6 1 42 3-1 2-5h9l-2 9-8 7-3 1h-9l-6-3-6-7-1-3-1-43-8 1-5 3v52h-21l-1-55-3-1-6 4-5 6-1 2-1 44h-20v-56l-4 2-2 5h-8l1-7 3-5 6-4z"/>
<path transform="translate(1438,376)" d="m0 0h9l11 4v-2h20v54l4-2 2-5h8l-1 8-4 5-8 4h-9l-7-4-3-2-8 5-3 1h-12l-10-4-5-5-4-5-4-9-1-5v-9l2-9 6-10 8-7z"/>
<path transform="translate(1173,376)" d="m0 0h9l11 4v-2h20v54l4-2 2-5h8l-1 8-5 6-7 3h-9l-8-5v-2l-10 6-3 1h-12l-10-4-8-8-4-8-2-10 1-12 4-10 8-9 8-4z"/>
<path transform="translate(623,376)" d="m0 0h11l10 4v-2h20v54l4-2 2-5h8l-1 8-5 6-7 3h-9l-6-4-4-2-5 4-6 2h-12l-9-4-8-7-5-10-1-3v-18l4-9 6-8 7-5z" fill="#000101"/>
<path transform="translate(966,142)" d="m0 0h7l4 12v4l-3 1h3l1 2v19l-4 12-6 9-9-2h-13l-12 3-12 7-4 4h-2l-2 4-6 10-4 13v19l4 12 1 4-3-3-6-13-3-12v-28l4-15 2-3 3-1v2h5l-1-3h-5l-1-3 10-16 11-13 10-9 16-10 12-5z" fill="#DE2F56"/>
<path transform="translate(913,310)" d="m0 0h2l3 15 1 7v20l-4 20-4 12-4 9-5 12-7 16-9 10-10 5h-11l-7-3-6-4-3-4-2-7v-13l5-8 4-1 1-3 12-6 12-8 5-6h2l1-3 5-5 2-4 7-12 3-7 5-17z" fill="#F3CF21"/>
<path transform="translate(925,223)" d="m0 0 5 1v8l-1 3v4h2l2 6 7 2h7l6 10 5 12 2 9v23l-4 14-8 16-12 22-5 5-6 8-1-3 5-14 3-18v-18l-2-14-3-12-2-6-6-9-9-14-1-6-2-1v-9l6-12 9-6z" fill="#DE2D55"/>
<path transform="translate(742,376)" d="m0 0h12l9 4 7 6 5 9 2 5v18l-7 14-8 7-8 3h-12l-9-4-5-4-7-11-2-7v-15l5-12 7-8 8-4z" fill="#000101"/>
<path transform="translate(1598,376)" d="m0 0h11l10 4 5 5 6 8 3 10v13l-4 11-6 8-7 5-6 2h-12l-10-4-7-7-5-10-2-8v-8l4-13 7-9 9-6z" fill="#000202"/>
<path transform="translate(879,255)" d="m0 0 4 2 4 5-4 8 1 5 1 1h10 3l6 13 2 7 2 6v6l-3 3v5l3-2v6l-5 1 1 5 2 4-1 3h-2l-1 8-8 11-7 6-12 6-4 1h-10l-9-2-6-3-3-2v-3l-7-1-3-4 2-3-1-7v-4l7-9 2-1v4h3l1 6 5 2 14 3 6-1 2-3 5-2 6-3 2-9 1-4 2-5-1-5-4-7-3-3-3-5-7-1-3-2 1-5 3-7 3-11 1-1z" fill="#2FAFA9"/>
<path transform="translate(1108,327)" d="m0 0h20l1 48 13 1v8l-1 1h-12v46l3-1 2-5 8-1 1 4-4 8-6 5-3 1h-9l-6-3-6-7-1-3v-44h-7l-1-1v-8h8z" fill="#000101"/>
<path transform="translate(681,326)" d="m0 0h18l1 1v49h13v8l-1 1h-12v47l3-1 4-7 7 1-1 7-4 6-8 4h-9l-8-5-4-7-1-45h-7l-1-1v-7l1-1 7-1 1-48z" fill="#000101"/>
<path transform="translate(925,398)" d="m0 0h2l6 19 7 16 8 14 9 12 1 3 4 2 1 4-8 3-25 5-18 2-1-1-1-16v-17l2-14 2-7 3-10 5-10z" fill="#F2CE1F"/>
<path transform="translate(834,128)" d="m0 0 4 4 11 18 10 21 5 16 4 22 1 13-5-2-10-7-4-7-10-13-10-8-4-14-1-12 2-14 6-16z" fill="#DE3057"/>
<path transform="translate(867,291)" d="m0 0 10 1 5 4 1 5 3 1 5 9-1 5-1 3-2 11-4 4-5 3h-4l-2 4-6 1-16-4-4-4v-4h-3l-1-5 13-16 10-15z" fill="#DA3056"/>
<path transform="translate(844,366)" d="m0 0h10l5 3 4 5v8l-4 8-9 8h-3v2l-7 6-3 7v8l4 11 4 4h-3l-5-3-1-3h-2v-2l-3-1-6-13-1-5v-17l3-9 6-10 8-6z" fill="#24ABA5"/>
<path transform="translate(856,89)" d="m0 0 3 1 8 24 3 16v24l-3 19h-2l-3-19-5-15-8-15-7-9 2-5 8-14h2l1-5z" fill="#DF3058"/>
<path transform="translate(750,387)" d="m0 0h8l6 5 4 8 1 4v11l-4 10-7 6h-8l-5-5-3-8v-18l3-8z" fill="#FDFDFD"/>
<path transform="translate(1606,387)" d="m0 0h8l5 5 5 10 1 11-3 9-4 6-4 3h-8l-5-4-3-8v-20l4-9z" fill="#FDFDFD"/>
<path transform="translate(937,81)" d="m0 0h2l5 12 2 4-1 3 4 3-1 5-6 1-1 4-4 1 1 7-4 2-3-2-8 1-2-1-2 4-4 1-2-2v-6l-4 1-2-2v-3l-2 1h-7l6-9 9 1 9 5h1l-1-4v-7l2-3 2-6 7-8z" fill="#ED878E"/>
<path transform="translate(649,234)" d="m0 0h5l2 6 6 31 4 12 3 4 7 1-1 3-9 2-5-3-4-10-2-11-18 1-6 15-3 7h-6l2-6 7-15 3-7 10-22z" fill="#010505"/>
<path transform="translate(1447,385)" d="m0 0 7 3 4 4v34l-7 6-4 1-5-3-4-5-3-10v-12l3-10 6-7z" fill="#FDFDFD"/>
<path transform="translate(1182,385)" d="m0 0 7 3 4 4v34l-6 6-5 1-5-3-4-5-3-10v-11l2-9 4-6 3-3z" fill="#FDFDFD"/>
<path transform="translate(633,385)" d="m0 0 6 2 5 5v34l-7 6-4 1-5-3-4-5-3-11v-9l3-12 6-7z" fill="#FDFDFD"/>
<path transform="translate(1526,386)" d="m0 0h6l6 4 1 1v36l-6 5-5 1-5-3-5-9-1-3v-17l3-9 4-5z" fill="#FDFDFD"/>
<path transform="translate(1373,385)" d="m0 0 6 2 4 5 3 8 1 5v8l-2 9-5 8-4 3-6-1-5-5v-36l6-5z" fill="#FDFDFD"/>
<path transform="translate(928,405)" d="m0 0 2 3 6 16 8 16 9 14 5 6v2l4 2 1 4-8 3-7 1-11-14-1 7h-1l-2-9-3-3-8-1 3-2h3l1-12-2-10-2-9h2l-1-6h2z" fill="#FCFCFB"/>
<path transform="translate(966,142)" d="m0 0h7l4 12v4l-3 1h3l1 2v19h-2v3l-5-1-1-5-8 1-4-3v-5l-6-2-2-2v-5l3-3-5-1-2-4 5-5 12-5z" fill="#E24427"/>
<path transform="translate(925,223)" d="m0 0 5 1v8l-1 3v4h2l2 6 6 1-1 4-4-2-5 8-5 3h-7l-6-3-3-5h-1v-9l6-12 9-6z" fill="#F3CF2E"/>
<path transform="translate(887,137)" d="m0 0h8l5 1v2l3 1h-3v2l4-1 2 1 2 9v9h-3v3h-3v3l-5 2-5 1-6-2h-2v-2h-3l-1-8z" fill="#E24849"/>
<path transform="translate(826,164)" d="m0 0 4 2 11 11 8 10 10 15 8 16v3l-5-2-8-6-4-7-10-13-10-8-4-14z" fill="#FDFDFD"/>
<path transform="translate(879,255)" d="m0 0 4 2 4 5-4 8 1 5 1 1h10 3l6 13 1 6-4 4-9 1-4-4-1-7 2-6-11 1-5-5 3-11 1-1z" fill="#EE8E95"/>
<path transform="translate(1671,470)" d="m0 0 2 1-1 3h-4l1 7-5 6-8 1 1 3 13 4 1 7-5 5-2 1h-11l-4-3v-6l4-4h2v-2h-2l1-5v-2l-3-7 3-5 3-3h8l4 1z" fill="#020909"/>
<path transform="translate(788,255)" d="m0 0 8 2 2 2v7l-6 5-13 3h-2l2 9 2 4 8 1 6-3h3l-4 5-7 3-8-1-6-5-2-5v-10l4-9 5-5z" fill="#010606"/>
<path transform="translate(717,255)" d="m0 0 8 2 2 2v7l-6 5-13 3h-2l2 9 4 4 6 1 6-3h3l-4 5-7 3-8-1-5-4-3-7v-8l4-10 7-6z" fill="#000101"/>
<path transform="translate(942,169)" d="m0 0 6 2 2 6-3 5-4 4v6l-5 5h-5l-3-2-12 1-3-3v-7l3-3h7 4l8-1v-2h-2v-6l4-4z" fill="#E44A24"/>
<path transform="translate(934,247)" d="m0 0 4 2 2-2h7l6 10 1 2v7l-6 6h-11l-5-5v-2h-2l-1-10z" fill="#E44827"/>
<path transform="translate(958,273)" d="m0 0h1l1 5v23l-4 14-8 16-12 22h-1v-6l4-2v-2l-3 1-2-3 2-4-1-1v-5h2l1-6h3l1-4h3l1-3 4-1 2 1 2-12 2-13z" fill="#EA8344"/>
<path transform="translate(1399,471)" d="m0 0 5 1v7l-1 2h2l2-5 5-5h5l3 6-1 9-5 6-4 2-5-1-2-1-1 16h-3l1-35-4-1z" fill="#010606"/>
<path transform="translate(881,205)" d="m0 0h5l3 5v11h-1l1 9 1 12-1 2h2l1 4 6 17 4 7v2h-2l-5-9v-3h-2l-6-13v-5h-2l-5-17-3-15v-6z" fill="#F2C822"/>
<path transform="translate(956,117)" d="m0 0 4 1 4 7 1 6-15 4-5 1-3 2-9 5-4 2 1-4 5-1-2-3v-5l4-4h7v-7l2-2h6l3 1z" fill="#F2CC26"/>
<path transform="translate(1591,458)" d="m0 0h6l9 25v2h2l1-5 10-22 4 1-1 17v11l1 3 4 2-1 1h-7l-1-2-1-23-11 25-2-1-8-24-1-1-1 20-2 6h-3l2-10 1-10v-12l-4-2z" fill="#000404"/>
<path transform="translate(738,224)" d="m0 0h6l-1 14-2 23v27h8l-3 3-8 2-3-3v-29l2-35z" fill="#000303"/>
<path transform="translate(920,452)" d="m0 0h10l5 6v9l-3 3-5 3h-8l-5-4-1-2v-8l5-5z" fill="#EE8F9A"/>
<path transform="translate(684,237)" d="m0 0h4l-1 14-1 7h11v2h-12v19l2 8 6 1 5-1v2l-9 4-7-1-3-6v-19l1-7h-6l1-2 5-2 3-18z" fill="#010505"/>
<path transform="translate(879,402)" d="m0 0 7 1 5 5 1 7-3 6-4 3-9-1-5-5-1-7 2-6z" fill="#E44525"/>
<path transform="translate(934,75)" d="m0 0 4 2 7 8 12 19 10 19 8 19 1 6-3-3v-3l-2-1-6-12-5-9v-2h-2l-5-10-11-17-3-7v-3l-8 6-5 6h-2l2-5 6-10z" fill="#010202"/>
<path transform="translate(925,398)" d="m0 0h2l1 3v12l-1 1v5 4l1 5-1 3-8 1-5-3-1-3 4-13 5-10z" fill="#F3CE3B"/>
<path transform="translate(857,345)" d="m0 0 4 1 1 3 4-1 3 2-1 7 1 5-1 1h-5v2l-11-2-3-3 2-2-3-5 2-3h5v-4z" fill="#DE2C53"/>
<path transform="translate(892,336)" d="m0 0 7 1 3 2-2 5-7 9-8 6-10 5h-2v-2l3-2h4l-2-5 1-7 2-1h7l2 1-1-8z" fill="#E44D31"/>
<path transform="translate(879,255)" d="m0 0 4 2 4 5-4 8 1 5 1 3h6l-2 5-11 1-5-5 3-11 1-1z" fill="#DE2F57"/>
<path transform="translate(1671,470)" d="m0 0 2 1-1 3h-4l1 7-5 6-9 1-4-8 2-5 4-4h8l4 1z" fill="#020B0A"/>
<path transform="translate(1507,452)" d="m0 0h4l-1 17v11l5-8 6-1 2 2v18l4 1-7 1-1-18-5 2-4 9-2 7h-3l1-26z" fill="#020909"/>
<path transform="translate(1712,452)" d="m0 0h3l-1 17v11l5-8 6-1 2 2v18l4 1-7 1-1-18-5 2-4 9-2 7h-3l2-40z" fill="#010404"/>
<path transform="translate(649,240)" d="m0 0h1l4 22v4h-16l1-5 8-19z" fill="#FDFDFD"/>
<path transform="translate(895,364)" d="m0 0h3l1 2v10l-2 4-7 5h-7l-3-3 2-4 4-5h2l1-3 5-5z" fill="#ED8E8D"/>
<path transform="translate(756,256)" d="m0 0h5v32l8-1-1 3-5 2h-7l-2-9 1-26z" fill="#000303"/>
<path transform="translate(1680,471)" d="m0 0h7l3 5v14l4 1v2h-6l-3-4-4 4-4 1-4-4 2-6 6-3h5l-1-7-4-1-2 1-1 5-3-1 1-5z" fill="#020E0D"/>
<path transform="translate(1635,471)" d="m0 0h7l3 4v16h5l-1 2h-6l-3-4-6 5-5-2v-6l4-4 8-2-1-6-4-1-2 1v5l-4-1 1-4z" fill="#020C0B"/>
<path transform="translate(1740,471)" d="m0 0h7l3 4v16h5l-1 2h-6l-3-4-6 5-5-2-1-4 2-4 7-3h4l-1-7-4-1-2 1v5l-4-1 1-4z" fill="#020B0A"/>
<path transform="translate(941,438)" d="m0 0 4 3 5 9 8 10v2l4 2 1 4-8 3-4-1-2-7-4-10-4-13z" fill="#F3CF2E"/>
<path transform="translate(1487,457)" d="m0 0h8l5 3v7l-2-3-4-4h-7l-4 2-3 5-1 4v9l4 8 3 2h8l6-3-2 4-7 3-8-1-7-6-2-5v-10l4-9 5-4z" fill="#010606"/>
<path transform="translate(897,226)" d="m0 0 6 3 1 3-1 4 1 4v19l4 12 1 4-3-3-6-13-3-12z" fill="#E24262"/>
<path transform="translate(891,435)" d="m0 0 2 4v2l-5 2-4-2 4 4-2 4-2-2 1-2-6-2 1 6h3l-1 4-7 5-3-1-2-4-2-1v-2l6-1 1-8 6-3 7 2v-3h3z" fill="#36A49A"/>
<path transform="translate(1763,471)" d="m0 0h7l2 2v5l-5 3-8 1 3 7 1 1 7-1 2-1-2 4-7 2-5-3-2-3v-8l3-6z" fill="#020A0A"/>
<path transform="translate(821,357)" d="m0 0 4 1 1 4v10l-2 4-2 2v1h-5v2h-3l-1-3 6-17z" fill="#D8D055"/>
<path transform="translate(849,407)" d="m0 0 8 1 3 5-1 7-5 4h-4l-3-6v-9z" fill="#F0A38E"/>
<path transform="translate(1430,473)" d="m0 0h5l3 4v10l-4 5-5-2-2-3v-10z" fill="#FDFDFD"/>
<path transform="translate(1430,471)" d="m0 0h7l4 4 1 8-3 7-4 3-5 1-5-3-2-4 1-9 3-5zm0 2-3 4v10l5 5 4-2 2-3v-10l-3-4z" fill="#000403"/>
<path transform="translate(958,273)" d="m0 0h1l1 5v23l-4 14-7 14-1-2v-4l3-1-1-4h2l2-12 2-13z" fill="#FDFDFD"/>
<path transform="translate(1412,474)" d="m0 0 3 1 1 2v8l-3 5-3 2-6-1-1-4 5-10z" fill="#FDFDFD"/>
<path transform="translate(918,183)" d="m0 0h7 4l1 2-1 6v3l-5 2h-6l-3-3v-7z" fill="#E55328"/>
<path transform="translate(890,146)" d="m0 0 6 1 3 3-1 7-3 3h-6l-4-4 1-7z" fill="#010000"/>
<path transform="translate(932,333)" d="m0 0h3l2 5-2 4 4 1v2l-3 2-2 7-9 12-1-3 5-14z" fill="#E03856"/>
<path transform="translate(714,258)" d="m0 0 5 1 2 2-1 7-6 3-8 1 1-7 3-5z" fill="#FDFDFD"/>
<path transform="translate(1656,495)" d="m0 0 10 2 2 2-1 5-5 3-7-1-3-3 1-6z" fill="#FDFDFD"/>
<path transform="translate(925,223)" d="m0 0 5 1v2h-3l-1 7-13 4-5 5 1-5 4-7 9-6z" fill="#E44A29"/>
<path transform="translate(785,258)" d="m0 0 5 1 2 2v5l-4 4-11 2 1-7 3-5z" fill="#FDFDFD"/>
<path transform="translate(1700,452)" d="m0 0h3l-1 17v21l3 2-1 1h-5l-1-1v-25l1-14z" fill="#010707"/>
<path transform="translate(857,345)" d="m0 0 4 1 1 3 4-1 3 2-1 7 1 5-3 1-4-2v-7l-6 1-1-9z" fill="#DE2E55"/>
<path transform="translate(887,107)" d="m0 0 4 1-9 20-1 3h-2v2l-2-1 1-4 2-17 5-3z" fill="#E5513A"/>
<path transform="translate(1565,471)" d="m0 0h7l3 3-1 3h-3v-4h-7v6l6 2 5 5-2 6-5 2-6-1-3-3 3-3 3 4 6-1-1-4-8-5-2-5z" fill="#031010"/>
<path transform="translate(1780,471)" d="m0 0h7l3 2-1 4h-2l-1-3-4-1-3 2 2 4 8 5 1 5-4 4-5 1-5-2-1-4h3l3 3 5-1-1-4-8-5-1-1v-6z" fill="#000303"/>
<path transform="translate(788,233)" d="m0 0 3 1 8 18-4-2-6-9-2-1-2 5-6 7-2-1 9-17z" fill="#000101"/>
<path transform="translate(831,185)" d="m0 0 8 6 7 8 8 11v2l-4-2-9-8-8-11z" fill="#E0395D"/>
<path transform="translate(907,341)" d="m0 0 5 1 3 4-1 6-4 3-7-2 1-7 2-4z" fill="#E44A2A"/>
<path transform="translate(1531,471)" d="m0 0 5 1v8l5-8 5-1 1 4-6 1-3 5-3 12h-3v-19l-4-2z" fill="#020A0A"/>
<path transform="translate(1447,471)" d="m0 0h4l1 3v6l3-6 3-3 5 1-1 3-5 1-4 8-3 9h-2v-20l-4-1z" fill="#000303"/>
<path transform="translate(865,423)" d="m0 0 5 2 2 5-2 4-5 2-5-4-2-5 4-3z" fill="#F09EA5"/>
<path transform="translate(1659,472)" d="m0 0 5 2 1 2v7l-3 3-5-1-2-3v-6z" fill="#FDFDFD"/>
<path transform="translate(1412,471)" d="m0 0h5l3 6-1 9-5 6-4 2-5-1 1-2 6-1 3-5v-8l-1-2-5 2-2 2v-3z" fill="#041312"/>
<path transform="translate(900,308)" d="m0 0 4 2 1 2v4l3-2v6l-5 1v3l-5 2-2-2 1-5h4l1-2-3 1 1-4h-2l1-5z" fill="#E23F2E"/>
<path transform="translate(937,183)" d="m0 0 3 1 1 2v6l-3 3h-5l-3-2v-6l3-3z" fill="#F3CD40"/>
<path transform="translate(1721,471)" d="m0 0 5 1 1 1v18l4 1-7 1-1-18-5 2-2 4-2-1 5-8z" fill="#000303"/>
<path transform="translate(1517,471)" d="m0 0 5 1 1 1v18l4 1-7 1-1-18-5 2-2 4-2-1 5-8z" fill="#010505"/>
<path transform="translate(925,398)" d="m0 0h2l1 3v12h-8l-2-1 2-5z" fill="#F3D025"/>
<path transform="translate(955,461)" d="m0 0 6 2 2 2-1 4-10 2-3-8z" fill="#E76931"/>
<path transform="translate(968,142)" d="m0 0h5l4 12v4l-5-2-3-3v-4h-3z" fill="#B52244"/>
<path transform="translate(906,383)" d="m0 0h4l-2 9-3 5-3-1-2-6v-3z" fill="#EF9F93"/>
<path transform="translate(819,361)" d="m0 0 3 1 1 2v7l-2 4-7 3 2-9z" fill="#24ABA5"/>
<path transform="translate(916,420)" d="m0 0h1l2 6h5l3-3 1 5-1 3-8 1-5-3-1-3 1-4h2z" fill="#E44B2A"/>
<path transform="translate(1430,471)" d="m0 0m-1 1v3l-1 2v10l4 4v3l-6-2-3-5 1-9 3-5z" fill="#041312"/>
<path transform="translate(842,450)" d="m0 0h5l1 2-1 2h-2v2l-5 2-5-2-3-5z" fill="#D43356"/>
<path transform="translate(1551,471)" d="m0 0 3 1v18h4v2l-7 1-1-1v-20z"/>
<path transform="translate(863,390)" d="m0 0 3 2-1 5-3 3h-6l-2-4h2l1-3z" fill="#E86D30"/>
<path transform="translate(932,182)" d="m0 0h7l4 4v6l-5 5h-5l-4-3-1-7zm5 1-6 2-1 2v6l3 2 7-1 1-2v-6l-3-3z"/>
<path transform="translate(910,404)" d="m0 0h2l-1 7-5 10-5 1 1-5 7-11z" fill="#E13C5F"/>
<path transform="translate(943,186)" d="m0 0 2 2-1 7h3l-1 4-11 1-5-4h8l4-4z" fill="#EC9042"/>
<path transform="translate(927,273)" d="m0 0 5 1 1 4-5 7-2-1-3-6z" fill="#D64124"/>
<path transform="translate(879,255)" d="m0 0 4 2 4 5-4 8-1-3 1-2-5 1z" fill="#ED888F"/>
<path transform="translate(897,226)" d="m0 0 6 3 1 3-3 7-4 1z" fill="#ED858C"/>
<path transform="translate(891,435)" d="m0 0 2 4v2l-5 2-4-2 4 4-2 4-2-2 1-2-3-1-1-4-2-1h3l6 1v-3h3z" fill="#1D8B87"/>
<path transform="translate(932,230)" d="m0 0 3 2 3 6 6 5-3 2-8-5-1-2z" fill="#F0CF3D"/>
<path transform="translate(812,392)" d="m0 0 4 3-1 8v11h-2l-1-3-1-18z" fill="#E0375C"/>
<path transform="translate(925,93)" d="m0 0 4 3v6l-4 4-3 1v-6l2-3z" fill="#E96F53"/>
<path transform="translate(1656,472)" d="m0 0 1 2-1 2v6l3 3 3 2-7 1-4-8 2-5z" fill="#000303"/>
<path transform="translate(858,355)" d="m0 0h2l1 6h-4l1 2-3 1-6-3 4-4z" fill="#BC5232"/>
<path transform="translate(919,412)" d="m0 0 7 1 1 1v5l-6-1-4 1-1-3 1-3z" fill="#E44C30"/>
<path transform="translate(1765,472)" d="m0 0 3 1 1 4-3 3-6 1v-5z" fill="#FDFDFD"/>
<path transform="translate(857,345)" d="m0 0 4 1 1 1v7l-6 1-1-9z" fill="#C93B28"/>
<path transform="translate(831,339)" d="m0 0 4 1 1 7-1 2-4-1-2-2v-4h2z" fill="#F3CD53"/>
<path transform="translate(1743,482)" d="m0 0h3l-1 5-5 4-3-2 1-5z" fill="#FDFDFD"/>
<path transform="translate(1683,482)" d="m0 0 3 1-3 6-5 2-1-1v-5z" fill="#FDFDFD"/>
<path transform="translate(1638,482)" d="m0 0h3l-1 5-5 4-3-2 1-5z" fill="#FDFDFD"/>
<path transform="translate(1592,473)" d="m0 0h2v14l-2 6h-3l2-10z" fill="#020A09"/>
<path transform="translate(757,237)" d="m0 0h5l1 1v5l-2 2-5-1v-6z" fill="#000303"/>
<path transform="translate(949,213)" d="m0 0h4l-1 3-3 2-10-1-2-2 6-1z" fill="#24ABA5"/>
<path transform="translate(858,353)" d="m0 0 4 1 1 7 3 2h-3v2l-7-1v-3l2-1h1l1-5h-2l-1 2v-3z" fill="#E89479"/>
<path transform="translate(922,459)" d="m0 0 5 1v5l-5-2-1 2 4 2h-5v-2l-2-1 1-4z" fill="#F3CF1E"/>
<path transform="translate(866,426)" d="m0 0h2l1 2v6l-4 2-4-4 2-3 2 1z" fill="#EA7875"/>
<path transform="translate(897,312)" d="m0 0 1 2h2v3h2l-1 3-4-1-1 2-3-4 1-4z" fill="#FDFDFD"/>
<path transform="translate(917,227)" d="m0 0 2 1-3 3v2l2 2-6 3-4 4 1-5 4-7z" fill="#E44E59"/>
<path transform="translate(1764,471)" d="m0 0h6l2 2v5l-5 3h-5l4-2 2-4v-2h-5z"/>
<path transform="translate(861,297)" d="m0 0h2l-2 5-10 13h-3l8-10z" fill="#030F0F"/>
<path transform="translate(933,186)" d="m0 0h5l1 1v5l-5 1-2-2z" fill="#0D3F3D"/>
<path transform="translate(1739,460)" d="m0 0 6 1 5 1v-2l2 1-3 4-10-1-2 1z" fill="#010807"/>
<path transform="translate(922,452)" d="m0 0h8l5 6v7l-2 1-2-9-9-4z" fill="#F3CF1E"/>
<path transform="translate(929,444)" d="m0 0h2l3 9h-4l-8-1 3-2h3v-5z" fill="#F3B4B9"/>
<path transform="translate(897,319)" d="m0 0h9v2h-3v3l-5 2-2-2z" fill="#E3402C"/>
<path transform="translate(904,200)" d="m0 0h2v2h5l-1 4-6 1-2-6z" fill="#D05F2C"/>
<path transform="translate(1487,457)" d="m0 0h8l5 3v7l-2-3-4-4-7-1z" fill="#010908"/>
<path transform="translate(818,363)" d="m0 0 3 1v6l-3 4h-3z" fill="#F6E176"/>
<path transform="translate(862,355)" d="m0 0 6 2 1 5-3 1-4-2z" fill="#D13E24"/>
<path transform="translate(1652,497)" d="m0 0 1 2v6l4 1v2l-6-1-2-2v-5z" fill="#031211"/>
<path transform="translate(832,451)" d="m0 0h13l-4 4h-5z" fill="#E3422A"/>
<path transform="translate(817,384)" d="m0 0h5l-2 6-4 1-1-5z" fill="#F3CF1E"/>
<path transform="translate(971,144)" d="m0 0 3 1 2 5v6l-4-4z" fill="#E23E30"/>
<path transform="translate(1542,471)" d="m0 0 5 1v3l-6 1-4 6-1-2 5-8z"/>
<path transform="translate(884,190)" d="m0 0h4l2 5-2 6-3-1 1-6-2-1z" fill="#E5DE82"/>
<path transform="translate(906,153)" d="m0 0 2 1v7h-3v3h-3v-3h2l1-7z" fill="#EFA92D"/>
<path transform="translate(879,410)" d="m0 0 5 1-1 5-5-1z" fill="#F6DF6D"/>
<path transform="translate(1458,471)" d="m0 0 5 1-1 3-5 1-3 1 2-4z" fill="#020B0B"/>
<path transform="translate(891,435)" d="m0 0 2 4v2l-5 2-2-1v-2h2v-3h3z" fill="#219F99"/>
<path transform="translate(907,345)" d="m0 0 4 1v4l-4 1-3-3 1-2z" fill="#F4D335"/>
<path transform="translate(1565,471)" d="m0 0h7l3 3-1 3h-3v-4h-7z"/>
<path transform="translate(833,441)" d="m0 0 4 3 4 1v-2h4l-1 3-5 1-5-2z" fill="#1E928D"/>
<path transform="translate(865,423)" d="m0 0 5 2 2 5-2 4h-1l-1-8h-2z" fill="#F1A7AC"/>
<path transform="translate(907,314)" d="m0 0h1v6h-6l-1-5 4 1z" fill="#CAAC44"/>
<path transform="translate(957,272)" d="m0 0h1v9l-3 1-1-1v-5z" fill="#E9732A"/>
<path transform="translate(889,463)" d="m0 0 2 4-1 1-1 8-4-2z" fill="#24ABA5"/>
<path transform="translate(885,458)" d="m0 0 1 3-5 10-3 3 1-5z" fill="#082624"/>
<path transform="translate(903,259)" d="m0 0 2 4 4 10-1 2-6-11z" fill="#E55971"/>
<path transform="translate(1561,487)" d="m0 0 4 4 4 2-4 1-5-2-1-3z" fill="#041313"/>
<path transform="translate(864,445)" d="m0 0h5l1 4h-7v-3z" fill="#1F9791"/>
<path transform="translate(887,137)" d="m0 0h8l4 1v3l-8-1-4-1z" fill="#F3CE40"/>
</svg>
