<?xml version="1.0" encoding="UTF-8"?>
<svg version="1.1" viewBox="0 0 2048 597" width="1920" height="560" xmlns="http://www.w3.org/2000/svg">
<path transform="translate(0)" d="m0 0h2048v597h-2048z" fill="#FDFDFD"/>
<path transform="translate(0)" d="m0 0h478l-3 11-7 10-10 10-16 11-16 9-29 14-27 11-44 17-42 16-37 15-35 16-28 15-21 14-14 11-13 13-9 13-6 13-5 19-8 30-10 33-11 30-12 27-12 22-12 17-12 13-8 7-13 8-12 4-6 1z" fill="#E02E53"/>
<path transform="translate(861,75)" d="m0 0 4 2 2 4h2l8 11 6 11 12-1h13l7 1 3 2 1-4 7-14 7-11h4l5 5 9 12 6 10 6 11 9 20 6 16 3 10 1 8v15l-4 13-6 10h-2l-2 4-3 1v2l-12 8-14 7v2l5 5v2h2l9 13 5 10 4 17v22l-3 16-6 15-10 21-4 8-5 17-1 6v25l6 16 8 14 14 22 4 6 6-1 24-11 12-7 14-10 8-6 7-8h2l2-4 8-11 5-10 4-12v-19l-3-12-6-11-9-12v-2h-2l-2-5h-2l-7-9-1-3h-2l-9-11v-2h-2l-3-4v-2h-2l-12-16-6-9-7-15-3-15v-19l5-22 6-12 6-8h2l2-4 8-7 10-6 9-3 6-1h12l12 2 14 6 10 6v2l4 2 9 11 3 8v16l-6 12-9 11-5 4h-2v2l-7 5h-2l2-4 3-7 2-8v-8l-3-11-5-8-8-7-9-4-9-2h-9l-10 2-10 5-7 7-6 10-4 13v13l4 16 7 14 5 6v2l4 2 2 4 4 2 9 7 10 7 11 8 11 9 8 8 8 11 4 8 4 12 2 13v32l-4 11-6 11-11 12-5 5h-2v2l-14 10-15 9-17 8-14 6-21 7-19 5-12 3-22 3h-28l-19-3-15-5-17-9-11-8-6-5-9-11-5-9-4-9-3-9-2-18v-9l3-22 5-13 6-11 10-13 5-6 5-5 6-7h2l2-4 10-14 6-12 4-12 2-10v-31l-8-6-15-10-10-7v-2l-4-2-2-4h-2l-6-10-3-8-1-7v-14l2-16 5-17 5-12 9-17 9-14 8-10z" fill="#FCFCFC"/>
<path transform="translate(2047,192)" d="m0 0h1v405h-443l5-5 16-13 18-13 19-13 19-9 33-11 84-23 35-11 21-8 23-10 25-13 12-8 12-9 14-12 11-12 11-16 8-16 6-16 4-17 6-49 6-30 7-25 9-22 9-17 8-10 6-7 11-8z" fill="#23ADA5"/>
<path transform="translate(923,93)" d="m0 0m11-18 4 2 5 5 9 13 9 16 8 16 5 11 7 22 1 8v15l-4 13-6 10h-2l-2 4-3 1v2l-12 8-14 7v2l5 5v2h2l9 13 5 10 4 17v22l-3 16-6 15-10 21-4 8-5 17-1 6v25l6 16 8 14 14 22 4 6 6-1 24-11 12-7 14-10 8-6 7-8h2l2-4 8-11 5-10 4-12v-19l-3-12-6-11-9-12v-2h-2l-2-5h-2l-7-9-1-3h-2l-9-11v-2h-2l-3-4v-2h-2l-12-16-6-9-7-15-3-15v-19l5-22 6-12 6-8h2l2-4 8-7 10-6 9-3 6-1h12l12 2 14 6 10 6v2l4 2 9 11 3 8v16l-6 12-9 11-5 4h-2v2l-7 5h-2l2-4 3-7 2-8v-8l-3-11-5-8-8-7-9-4-9-2h-9l-10 2-10 5-7 7-6 10-4 13v13l4 16 7 14 5 6v2l4 2 2 4 4 2 9 7 10 7 11 8 11 9 8 8 8 11 4 8 4 12 2 13v32l-4 11-6 11-11 12-5 5h-2v2l-14 10-15 9-17 8-14 6-21 7-19 5-12 3-22 3h-28l-19-3-15-5-17-9-11-8-6-5-9-11-5-9-4-9-3-9-2-18v-9l3-22 5-13 6-11 10-13 5-6 8-7 4-3-2 4-12 16-7 11-8 15-5 17-2 12 4 2-1 9v14l3 6 3 9 6 7 2 7 3 4h16l-2 5-2 2-5 2 4 2 9 2 8 5 2 2 13 4 7 1 3 1 3-12 6-12 3-2-2 5-4 11-1 11 31-1 20-3 20-5h3l-7-8-8-10-9-15-5-10-6-15-4-20v-7l3-13 5-14 12-22 9-17 4-13 1-5v-17l-2-12-5-13-6-10-3 1-9-3-1-3-3-1 1-2-3-1v-5l1-4 2-4 2-2 8-2 4-2-10-3v-1l20-3 8-7 7-8 5-11 2-7v-18l-6-4v-3h-2l-1-9 2-6-10-19-12-19-6-11-3-6v-3l-8 6-5 6h-2l1-4 7-12z" fill="#020706"/>
<path transform="translate(861,75)" d="m0 0 4 2 2 4h2l8 11 6 11 12-1h13l7 1 3 2 1-4 3-7 4-2 7-8 4-3h2l6 13 21 35-1 2-15 4-14 6-11 7-8 6-7 8-7 10-8 16-4 13-2 15v14l2 14 5 16 7 14 9 12-1 2-11-14-11-20-6-15-5-21-2-20v-10l2-19 5-21 8-20 9-17 3-5-12 1-2 6-8 18-3 5-1-4 3-20h-2v2h-2v-11l-2-6-6-9-6-4h-2l-1 7 6 16 4 16 1 7v24l-3 18-2 1-3-19-5-15-8-15-7-9-9 16-5 15-1 5v18l4 17 4 2 7 6 12 16 5 5 10 7 9 6 2 15v11l7 7 13 18 5 12 3 12v18l-3 12-7 14-7 8-11 7-5 2-12 1-14-3-6-4-1-2-7-3-2-3 2-3-1-6-2-3 12-15 3-5v-3h2l2-4 10-14 6-12 4-12 2-10v-31l-8-6-15-10-10-7v-2l-4-2-2-4h-2l-6-10-3-8-1-7v-14l2-16 5-17 5-12 9-17 9-14 8-10z" fill="#040E0E"/>
<path transform="translate(513,271)" d="m0 0h21l11 3 9 5 5 3v2l4 2 7 8 3 7 1 7v11l-3 6-3 4-6 2-7-1-5-5-2-3-1-9 2-5 3-2h6l6 4-1-6-3-7-5-5-6-5-11-5-4-1h-18l-12 3-12 7h-2v2l-5 5-8 11-6 15-5 19v27l3 15 5 15 7 11 1 3h2l4 5 2 1v2l14 7 12 3h15l13-4 15-8h2v-35h-36v-8l1-1h75v9l-17 1v38l4 5 3 9-1 4h-7l-5-10-5-3-6-1-8 3-8 5-20 6h-23l-12-3-14-7-9-6v-2l-4-2-5-6-4-4-7-10-6-13-3-12-1-5v-32l4-14 5-12 9-14h2l2-4 6-7 11-8 12-6 12-3z" fill="#020707"/>
<path transform="translate(679,326)" d="m0 0h21v50h13l1 8-1 1h-13v47l4-4 2-4h8l1 3-3 7-5 6-4 2h-12l-8-6-3-4v-4h-2l-1 6-6 6-4 2h-11l-7-4-1-3h-2v2l-9 5-8 1-10-2-8-5-7-7-4-9-1-13 2-11 3-6 9-10 6-3 4-1h11l9 3v-1h21v54l4-2 2-6h7l2 1v-39l-8-1v-9h8z" fill="#010404"/>
<path transform="translate(1553,271)" d="m0 0h13l6 4v4l-3 4-4-1-6-2 1 151 3-3 2-4h8v6l-2 5h-2v2l-8 5h-9l-7-3-4-2-7 4-10 2-9-2-9-6-8-9-3-8-1-12 2-8 5-10 5-6 9-5 3-1h11l8 3 2 1v-96l4-6 8-6z" fill="#010303"/>
<path transform="translate(1345,363)" d="m0 0h21l1 15 5-2h13l10 4 8 9 5 10v18l-3 9-6 9-8 5-11 3-10-2-4-2v69h-21z" fill="#010202"/>
<path transform="translate(937,81)" d="m0 0h2l6 13 21 35-1 2-15 4-14 6-11 7-8 6-7 8-7 10-8 16-4 13-2 15v14l2 14 5 16 7 14 9 12-1 2-11-14-11-20-6-15-5-21-2-20v-10l2-19 5-21 8-20 9-17 3-5-3-1 10 1 9 4 4 2-1-4v-7l4-9 7-8z" fill="#DF2F53"/>
<path transform="translate(1233,376)" d="m0 0h11l6 4 3 4 4-2 8-5 4-1h10l7 3 1 2 6-2 8-3h11l9 4 5 6 1 2v44l4-2 2-6h9l-1 8-2 4-6 5-9 2-7-2-5-3-5-7-1-43-3-2-5 1-5 4v51l-1 1h-20l-1-57-7 2-7 8-1 5v41l-1 1h-20v-57l-4 2-2 5h-8l1-8 4-5z" fill="#020707"/>
<path transform="translate(1172,376)" d="m0 0h10l9 3 2-2h20v55l4-3 2-5h8l1 3-3 8-5 5-4 2-7 1-9-3-4-4-10 6-10 1-9-2-9-6-1-3h-2l-5-9-2-7v-10l2-11 7-11 8-6z" fill="#020807"/>
<path transform="translate(1437,376)" d="m0 0h12l9 4 1-3h19v55l3-1 3-7h7l2 2-3 9-7 6-10 2-8-3-3-3-4 1-7 4-9 1-10-2-9-6-4-5-5-10-1-6v-9l2-10 5-8 2-3h2v-2l8-5z" fill="#010505"/>
<path transform="translate(965,142)" d="m0 0h5l-1 8v4h2v3l5 2 2 2v18l-4 12-6 10-10-2h-12l-12 3-11 6-6 5-7 10-5 12-1 4v20l4 12 1 4-3-3-7-16-2-9v-28l4-15 8-17 9-12 11-12 13-10 16-8z" fill="#D93150"/>
<path transform="translate(913,308)" d="m0 0 2 2 4 22v18l-3 19-5 15-4 10-6 13-8 17-8 8-8 4h-13l-10-5-5-6-2-7-1-10 5-10 10-7 11-6 5-4 5-3 7-8h2l2-4 11-19 6-18z" fill="#F8D227"/>
<path transform="translate(931,222)" d="m0 0h2l-1 4-2 4-1 8 2 1v2l5 4 8 2h3l8 14 4 12 1 9v17l-3 13-8 17-13 23-9 11-2 3-2-1 5-13 4-20v-21l-4-20-5-13-10-15-6-12v-9l6-12 9-6z" fill="#DF3155"/>
<path transform="translate(879,254)" d="m0 0 7 6 14 19 5 12 3 12v18l-3 12-7 14-7 8-11 7-5 2-12 1-14-3-6-4-1-2-7-3-2-3 2-3-1-6-2-3 9-11 2-1v4l3 1 2 5 4 2 13 3 7-1 4-3h3l1-3 5-2 2-4 3-13v-8l-4-2v-4l-3-1-3-6-12-3 2-5 6-17z" fill="#23ADA5"/>
<path transform="translate(1596,376)" d="m0 0h13l11 4 7 8 5 9 1 5v13l-2 8-6 10-7 6-8 3-8 1-13-4-6-5-6-9-2-5-1-7v-8l2-9 3-6 6-8 9-5z" fill="#020706"/>
<path transform="translate(740,376)" d="m0 0h16l8 4 7 7 5 10 1 3 1 14-3 10-6 9-8 7-5 2h-15l-7-3-7-6-6-9-2-7v-16l4-11 8-9 6-4z" fill="#010605"/>
<path transform="translate(679,326)" d="m0 0h21v50h13l1 8-1 1h-13v47l4-4 2-4h8l1 3-3 7-5 6-4 2h-12l-8-6-3-4-1-7v-39l-8-1v-9h8z" fill="#020A0A"/>
<path transform="translate(1108,326)" d="m0 0h20v50h14v9h-14l1 46h2l4-7h8v6l-3 6-6 5-10 2-8-3-5-4-3-6v-45h-8l-1-1v-8l8-1z" fill="#010605"/>
<path transform="translate(926,397)" d="m0 0h1l5 19 7 16 11 18 8 10 6 6v2l-18 5-16 3-9 1h-10l-1-11v-21l3-20 6-17 6-10z" fill="#F8D126"/>
<path transform="translate(891,128)" d="m0 0h2l1 8 4 1 2-4 3-2h5l1 1v7l-2 6 1-1h13l2 2-1 4-5 4-7 8-7 10-8 16-4 13-2 15v14l2 14 5 16 7 14 9 12-1 2-11-14-11-20-6-15-5-21-2-20v-10l2-19 5-21z" fill="#C4282C"/>
<path transform="translate(834,127)" d="m0 0 4 5 11 18 10 21 5 16 5 31v4l-5-2-10-8-10-14-5-6-8-6-4-12-1-5v-18l4-15z" fill="#DF3256"/>
<path transform="translate(867,291)" d="m0 0 10 1 5 3 2 5 2 1 2 5 2 1 1 8-4 15-4 4-3 1-1 2-9 5-7-1-14-3-3-3-1-4-2-1-1-5 9-11 13-18z" fill="#C01F38"/>
<path transform="translate(844,366)" d="m0 0h10l6 4 3 4v7l-5 10-10 8-8 7-3 8v7l3 9 5 5 8 5-3 1-11-6-7-7-6-12-2-8v-15l3-10 6-10 8-6z" fill="#23ADA5"/>
<path transform="translate(856,89)" d="m0 0h2l5 12 5 17 2 12v24l-3 18-2 1-3-19-5-15-8-15-7-10 6-11z" fill="#E03256"/>
<path transform="translate(937,81)" d="m0 0h2l6 13 4 7-1 7-6 2-1 4-3 1v7l-5 1-5-2-5 1-2-1-2 5h-5l-1-1v-7l-4 1-3-4h-8l5-9-3-1 10 1 9 4 4 2-1-4v-7l4-9 7-8z" fill="#E87A92"/>
<path transform="translate(888,166)" d="m0 0h6l-1 4-3-1 2 11 4 5-4 11-2 10-1 10v14l2 14 5 16 7 14 9 12-1 2-11-14-11-20-6-15-5-21-2-20v-10l1-13 7-3z" fill="#DE3C52"/>
<path transform="translate(648,234)" d="m0 0h7l7 36 3 11 4 6 8 1v2l-7 3h-6l-4-5-4-10-1-9-18 1-6 15-3 7-1 1h-5v-3l9-20 1-4h2l3-9z" fill="#041211"/>
<path transform="translate(750,387)" d="m0 0h7l5 3 5 9 2 8v8l-4 9-4 5-4 2-8-1-5-6-2-10v-11l2-9z" fill="#FDFCFC"/>
<path transform="translate(1607,387)" d="m0 0h6l6 5 4 7 1 5v13l-4 8-5 5-9 1-5-5-3-7v-20l5-10z" fill="#FDFCFC"/>
<path transform="translate(1446,385)" d="m0 0 6 2 2 1v2h2v2h2v34l-8 6h-6l-6-7-3-9v-10l3-12 3-5z" fill="#FCF7F8"/>
<path transform="translate(633,385)" d="m0 0 8 4 3 4v32l-5 6-8 1-5-5-4-8-1-6v-9l3-10 5-7z" fill="#FCFCFC"/>
<path transform="translate(1181,385)" d="m0 0 5 1 7 6v13l-1 22-4 4-8 1-6-5-4-13v-9l2-8 4-8z" fill="#FDFCFC"/>
<path transform="translate(1528,386)" d="m0 0 6 1 5 5v35l-8 5-6-1-6-8-2-7v-16l5-11z" fill="#FCF7F8"/>
<path transform="translate(1372,386)" d="m0 0h5l5 5 4 11v16l-4 10-6 5-5-1-5-4v-38z" fill="#FDFCFD"/>
<path transform="translate(928,406)" d="m0 0 2 4 6 15 7 14 10 15 9 10 2 4-16 4-9-11-7-12-2-5-3-18v-15z" fill="#FDFDFD"/>
<path transform="translate(965,142)" d="m0 0h5l-1 8v4h2v3l5 2 2 2v18l-2 4-5-2-1-4h-9l-2-2-1-7-7-1-1-5 1-4-4-3 1-5 14-7z" fill="#DC3926"/>
<path transform="translate(1595,457)" d="m0 0 3 3 5 14 4 10 8-19 4-7h4l-1 32h5l3-6 2-2 9-1v-7h-7v5h-4l1-6 6-3 6 1 2 3v17h5l-1 2h-7l-2-3-5 4-5-1h-3-8l-2-5v-20l-6 15-5 10-2-1-8-22-2 20-3 4h-2l2-15 1-18-5-1 3-2z" fill="#051817"/>
<path transform="translate(879,254)" d="m0 0 7 6 14 19 5 12v5l-5 3-7 1-5-5v-9l1-3-4 1h-8l-4-3 1-5 4-17z" fill="#E97C94"/>
<path transform="translate(931,222)" d="m0 0h2l-1 4-2 4-1 8 2 1v2l4 3-1 4-6 8-6 3-7-1-5-3-3-4v-9l6-12 9-6z" fill="#F8CE27"/>
<path transform="translate(958,275)" d="m0 0h1l1 7v17l-3 13-8 17-13 23-9 11-2 3-2-1 5-13 4-20 1-15h1l1 7 4 1h2l1-4 5-4 5 1 1-8 2-9 2-22z" fill="#D8692F"/>
<path transform="translate(826,164)" d="m0 0 4 2 11 11 11 14 9 15 6 13-1 2-11-8-12-16-4-5-8-6-4-12z" fill="#FDFDFD"/>
<path transform="translate(1671,469)" d="m0 0 2 1-1 4h-4l1 2v6l-5 5-8 1v3l11 2 5 5-3 7-8 4-9-1-3-3v-7h2v-2l2-1-1-5 1-2h2l-4-6 1-7 4-4 6-1 8 1z" fill="#061E1D"/>
<path transform="translate(714,255)" d="m0 0h8l5 4v8l-5 4-8 2-7 1 1 8 4 5h8l5-3h2l-2 5-7 4h-9l-7-6-2-5v-12l5-9 6-5z" fill="#041312"/>
<path transform="translate(785,255)" d="m0 0 10 1 3 3v8l-5 4-15 3v6l4 6 1 1h8l5-3h2l-2 4-7 5h-9l-6-4-3-7v-12l6-10 5-4z" fill="#041111"/>
<path transform="translate(935,245)" d="m0 0 7 1h3l4 4 7 14-1 2-7 5-9 1-6-4-3-4-1-10z" fill="#DE4026"/>
<path transform="translate(881,205)" d="m0 0h5l3 4v21l2 14 5 16 7 14 9 12-1 2-11-14-11-20-6-15-5-21-1-12z" fill="#F7CA2D"/>
<path transform="translate(738,224)" d="m0 0h6l-1 14-2 30v17l1 2h7l-1 3-9 3-3-1-1-2v-39l2-26z" fill="#030D0D"/>
<path transform="translate(929,443)" d="m0 0 3 3 3 7 1 5v8l-4 2v2l-7 3-7-1-4-4-1-2v-6l7-8 4-2 6 1-1-2z" fill="#E87089"/>
<path transform="translate(684,237)" d="m0 0 5 1-2 16-1 3h12l-2 4-11-1 1 24 3 4 9-1v2l-8 4h-7l-3-3-1-4v-25h-6l1-3 6-1 2-17z" fill="#041110"/>
<path transform="translate(1414,470)" d="m0 0 4 2 2 5-1 9-3 5-6 3-6-1-2 15h-3v-34l-4-2 9-1 1 8 4-6z" fill="#030E0E"/>
<path transform="translate(877,402)" d="m0 0h8l6 5 1 2v8l-6 7-5 1-8-4-3-4v-7l2-5z" fill="#E03457"/>
<path transform="translate(891,429)" d="m0 0 1 2 1 10-2 2-6-1 3 2-2 5h-2l-2 4-8 6-4-5v-2l-3-1-7-3 1-2 13-5 11-7z" fill="#3AAAA5"/>
<path transform="translate(1433,470)" d="m0 0 6 2 3 4v9l-4 6-4 3-7-1-4-5v-9l4-6z" fill="#07201F"/>
<path transform="translate(884,307)" d="m0 0h6l1 8-4 15-4 4-3 1-1 2-9 5-7-1-14-3-3-3-1-4-2-1-1-5 4-1 1 4h2l4 5 9 3h6l4-2 4-1 5-5 3-9z" fill="#C92748"/>
<path transform="translate(926,397)" d="m0 0h1l1 5-1 29-2 1h-7l-5-4 2-9 5-13z" fill="#E24156"/>
<path transform="translate(940,170)" d="m0 0h6l3 3-1 7-2 3-3 1 1 1v8l-5 5h-6l-2-2 9-1 2-3v-6l-3-3h-7l-3 5 1 7-4-1-3 2-5-1-3-3v-5l3-3h8 2l3-3 5-1 1-8z" fill="#E66727"/>
<path transform="translate(957,116)" d="m0 0 4 4 5 10-24 8-12 7h-2l2-4 3-1v-8h3l2 3 7-2-1-3v-9l2-2 7 1 7 6-3-5-2-2z" fill="#F8CE28"/>
<path transform="translate(856,345)" d="m0 0 5 1 1 3 5-1 2 2-1 7 2 4-2 2-7 2-12-3 2-6-3-1 1-5 4-1 2 1z" fill="#DE2F53"/>
<path transform="translate(1508,451)" d="m0 0 4 1-2 23v4l4-6 4-3 4 1 1 2v18l5-1-3 3-4 1-2-3v-15l-3-2-2 4-4 10-1 5h-4v-15l1-19 1-7z" fill="#07201F"/>
<path transform="translate(1712,451)" d="m0 0 4 1-2 23v4l6-8 4-1 3 3v18l5-1-3 3-4 1-2-4v-14l-3-2-2 4-4 10-1 5h-4l1-34 1-7z" fill="#061C1A"/>
<path transform="translate(892,336)" d="m0 0 7 1 3 3-6 10-9 8-12 6-3-1 5-3h4l-3-4v-7l3-2h8v-8z" fill="#DE3E2C"/>
<path transform="translate(1637,470)" d="m0 0 6 1 2 3v17h5l-1 2h-7l-2-3-5 4-5-1-3-1 2-7 3-3 9-1v-7h-7v5h-4l1-6z" fill="#092322"/>
<path transform="translate(1743,470)" d="m0 0 6 2 1 1v16l6 2-2 2h-7l-2-3h-2v2l-3 2-5-1-2-4 1-4 3-3 9-1-2-7h-5v5h-4v-5l5-3z" fill="#07201F"/>
<path transform="translate(1682,470)" d="m0 0 5 1 3 3v17h5l-3 3-5-1-2-4-4 4-5 1-3-3 1-7 7-3h5l-1-8-6 1v5l-4-1 1-5z" fill="#082826"/>
<path transform="translate(1486,457)" d="m0 0h9l5 2 1 8-3-1v-4l-9-2-7 3-3 8v8l3 8 4 3h7l6-3 2 1-4 4-5 2-9-1-3-1v-2l-3-1-3-6v-11l3-8 5-5z" fill="#041312"/>
<path transform="translate(758,255)" d="m0 0 4 1-1 12v20l8-1-1 3-9 3-4-2-1-8 1-26z" fill="#030B0A"/>
<path transform="translate(920,237)" d="m0 0 5 1 2 7 1 2-3 5-5 4-5-1-2-1v-2h-2v-10h2v-2z" fill="#EA7D94"/>
<path transform="translate(941,437)" d="m0 0 4 5 8 12 9 10 2 4-12 3-4-10-7-21z" fill="#F7C829"/>
<path transform="translate(895,363)" d="m0 0 3 3 1 2v7l-4 6-6 4-6-1-4-3 7-7 3-4h2l2-4z" fill="#EA818C"/>
<path transform="translate(897,226)" d="m0 0 4 1 4 3 1 2-2 7v20l4 12 1 4-3-3-7-16-2-9z" fill="#E24062"/>
<path transform="translate(1762,471)" d="m0 0h9l2 6-5 4-8 1 1 5 3 3 6-1 2-1-2 4-5 2-5-1-3-2-2-5 1-8z" fill="#072422"/>
<path transform="translate(648,241)" d="m0 0h2l3 19v5l-15 1 3-10z" fill="#FAF9FA"/>
<path transform="translate(1619,458)" d="m0 0h4l-1 32 5 1v2h-8l-2-5v-20l-6 15h-3l3-9z" fill="#061D1C"/>
<path transform="translate(899,308)" d="m0 0 8 1 1 1v11l-2 6-5-2h-4l-1-4 1-2h-3v-5l4-1z" fill="#A84E56"/>
<path transform="translate(822,356)" d="m0 0 3 2 1 4v10l-3 7-9 3-1-2 5-17z" fill="#BEC24F"/>
<path transform="translate(933,308)" d="m0 0 9 1 7 6v2l-7 5-1 3-5 1-2-2-1-7z" fill="#B91229"/>
<path transform="translate(888,146)" d="m0 0h7l4 3 1 4-2 5-2 2h-8l-4-5 1-6z" fill="#010101"/>
<path transform="translate(1567,470)" d="m0 0 6 1 2 2-1 4h-3l-1-3-6-1 1 5 9 5 1 7-3 3-7 1-5-2-1-4h4l3 3 4-1 1-3-8-5-3-3 1-6z" fill="#07211F"/>
<path transform="translate(1430,473)" d="m0 0 5 1 3 3v10l-3 4h-5l-3-5v-8z" fill="#FCFBFB"/>
<path transform="translate(877,265)" d="m0 0 5 1v8l3 3 6 1-2 5-4 1h-8l-4-3 1-5z" fill="#DE2D51"/>
<path transform="translate(1782,470)" d="m0 0 6 1 2 2-1 4h-3v-4l-7 2 2 4 8 4 1 1-1 7-6 3-6-1-3-2 2-4h2v3l8 1v-5l-5-2-5-3-1-4 3-5z" fill="#051615"/>
<path transform="translate(931,222)" d="m0 0h2l-1 4-3 4h-3v4l-11 2-5 4-2 2 1-5 5-8 8-5z" fill="#E35333"/>
<path transform="translate(850,407)" d="m0 0 6 1 3 4v7l-5 5-5-1-2-5v-9z" fill="#ED907A"/>
<path transform="translate(1700,451)" d="m0 0 4 1-2 25v14l4-1v2l-7 2-1-1v-26l1-15z" fill="#041110"/>
<path transform="translate(1412,474)" d="m0 0 4 3v8l-3 5-3 2-5-1-2-4 4-8z" fill="#F8F6F7"/>
<path transform="translate(887,107)" d="m0 0h4l-2 6-8 18-3 5-1-4 3-21z" fill="#E04D36"/>
<path transform="translate(787,233)" d="m0 0 5 1 5 13 2 3-1 3-2-1v-2h-2l-6-9-7 10h-2v2h-2l2-6 7-13z" fill="#061A19"/>
<path transform="translate(908,144)" d="m0 0h13l2 2-1 4-6 5-7 1-2-5v-2l-2-2z" fill="#BA132A"/>
<path transform="translate(958,275)" d="m0 0h1l1 7v17l-3 13-5 10-1-4 4-17 2-22z" fill="#FDFBFB"/>
<path transform="translate(1531,471)" d="m0 0 5 1v8l3-7h2v-2h6l-1 5h-5l-3 7-3 10h-4v-19l-3-2z" fill="#051817"/>
<path transform="translate(905,153)" d="m0 0 4 1 1 1h6l-6 7-7 10-2 2-1-6-3 1-1-3 3-2h3v-3l2-1z" fill="#DE6835"/>
<path transform="translate(1459,470)" d="m0 0 4 2-1 4h-5l-4 9-2 8h-4l1-20-3 1-2-2 8-1 1 9 3-7z" fill="#051514"/>
<path transform="translate(714,258)" d="m0 0 6 2 1 5-3 4-5 2h-7l1-6 5-6z" fill="#FBF8F9"/>
<path transform="translate(907,341)" d="m0 0 6 1 2 3v6l-4 4-7-1-2-3z" fill="#E65952"/>
<path transform="translate(890,168)" d="m0 0 3 1 7-1 1 7-5 9-4-2-3-11z" fill="#BB142B"/>
<path transform="translate(1655,496)" d="m0 0h9l4 3-2 5-2 2-7 1-4-2v-7z" fill="#FBF9FA"/>
<path transform="translate(785,258)" d="m0 0 6 2 1 6-6 4-9 1 1-5 4-6z" fill="#FDFAFB"/>
<path transform="translate(1414,470)" d="m0 0 4 2 2 5-1 9-3 5-6 3-5-1 1-2 6-1 3-5v-8l-3-2-3 1-1 3-2-2 5-6z" fill="#061C1A"/>
<path transform="translate(918,184)" d="m0 0h8l1 1v8l-4 3-5-1-3-3v-5z" fill="#DE3A25"/>
<path transform="translate(1722,470)" d="m0 0 4 1 1 2v18l5-1-3 3-4 1-2-4v-14l-3-2-1 3-3-1 4-5z" fill="#051716"/>
<path transform="translate(877,402)" d="m0 0h8l5 4v3h-2l-2 6h-7v-4l2-3-1-2-4-1z" fill="#E3582D"/>
<path transform="translate(1518,470)" d="m0 0 4 1 1 2v18l5-1-3 3-4 1-2-3v-15l-3-2-1 3h-3l2-4z" fill="#051918"/>
<path transform="translate(832,186)" d="m0 0 8 6 12 15 2 5-4-2-12-12-6-9z" fill="#DC3657"/>
<path transform="translate(930,344)" d="m0 0 1 2 8-1-2 6-6 7-6 8-2-1 5-13z" fill="#E34859"/>
<path transform="translate(862,424)" d="m0 0h7l2 3v5l-3 3-6-1-4-5 2-4z" fill="#EB838A"/>
<path transform="translate(867,291)" d="m0 0 10 1 5 3 2 5 2 1v5l-2-1v-3l-7-2v-2l-11-2z" fill="#C52545"/>
<path transform="translate(935,183)" d="m0 0 5 2 1 1v6l-3 3h-5l-3-3v-6z" fill="#F7C829"/>
<path transform="translate(953,461)" d="m0 0h6l5 5v2l-12 3-3-9z" fill="#E15B2E"/>
<path transform="translate(1657,473)" d="m0 0h5l3 4-1 7-4 2-3-1-2-5 1-6z" fill="#FDFCFC"/>
<path transform="translate(916,389)" d="m0 0 1 4-5 15-7 14-5-1 4-7 7-11z" fill="#DE4161"/>
<path transform="translate(851,349)" d="m0 0h5l6 4-2 5-1 2h-3l-2-2-3 1v-3l-3-1 1-5z" fill="#AD364D"/>
<path transform="translate(926,397)" d="m0 0h1l1 5v9l-1 2-9-1 2-6z" fill="#F8D127"/>
<path transform="translate(1550,471)" d="m0 0h4v19h5l-3 3-5 1-2-6z" fill="#061E1D"/>
<path transform="translate(820,360)" d="m0 0 3 3 1 6-3 6-7 3 1-6 4-11z" fill="#23ADA5"/>
<path transform="translate(903,131)" d="m0 0h5l1 1v7l-2 4h-3v-2l-4-1-2-5z" fill="#B91229"/>
<path transform="translate(1671,469)" d="m0 0 2 1-1 4h-4l1 2v6l-5 5-2-1 2-4-1-7-6-2 2-3 11 1z" fill="#061D1C"/>
<path transform="translate(1430,471)" d="m0 0m-2 1h2l-2 6v8l2 4 4 2-1 1h-6l-4-5v-9l4-6z" fill="#041211"/>
<path transform="translate(1593,464)" d="m0 0 2 2v12l-1 12-3 4h-2l2-15 1-13z" fill="#061A19"/>
<path transform="translate(897,226)" d="m0 0 4 1 4 3 1 2-2 7h-3l-4 1z" fill="#EA7D95"/>
<path transform="translate(863,390)" d="m0 0h2l1 6-5 5-7-2v-3z" fill="#E65856"/>
<path transform="translate(907,383)" d="m0 0h3l-2 9-4 5-3-3-1-7 4-3z" fill="#EC887F"/>
<path transform="translate(854,355)" d="m0 0 2 3 1 1 5-4 2 1v5 3l-3 1-12-3 1-3 4-1z" fill="#E34D57"/>
<path transform="translate(841,450)" d="m0 0h7l-2 5-2 2-6 1-5-5-1-2z" fill="#D13232"/>
<path transform="translate(1656,471)" d="m0 0 2 1-2 5 1 8h6l-1 2-7 1-4-6 1-7zm-3 17 2 1-2 1z" fill="#082725"/>
<path transform="translate(896,450)" d="m0 0v3l-5 13-1 11-5-1 3-12 6-12z" fill="#21A39B"/>
<path transform="translate(1653,495)" d="m0 0 2 2-1 1-1 7 5 1h6v2l-8 1-5-2-2-2v-7h2v-2z" fill="#0A2F2D"/>
<path transform="translate(1681,481)" d="m0 0 4 1-7 3-1 5 6-1v-2h2l-2 5-4 2-5-1-1-6 1-3z" fill="#061C1A"/>
<path transform="translate(934,131)" d="m0 0 2 1 2 3 7-1v3l-14 7-3 1 2-4 3-1v-8z" fill="#F8D129"/>
<path transform="translate(921,417)" d="m0 0 4 2 1 5-3 3-5-1-1-6z" fill="#F9D426"/>
<path transform="translate(918,412)" d="m0 0 9 1v11l-2-4-4-2-5 1 1-6z" fill="#E14152"/>
<path transform="translate(925,93)" d="m0 0 3 1 1 2v7l-3 3h-3l-1 2v-7z" fill="#E35B2D"/>
<path transform="translate(940,127)" d="m0 0 4 1 2 6-9 2-3-6z" fill="#EA818F"/>
<path transform="translate(812,392)" d="m0 0 4 2-1 9v11h-2l-2-14v-7z" fill="#D73252"/>
<path transform="translate(758,236)" d="m0 0h4l2 6-2 3h-5l-2-5z" fill="#061D1C"/>
<path transform="translate(932,230)" d="m0 0 3 2 2 6 6 4 1 2h-6l-5-4-1-2z" fill="#F6C32A"/>
<path transform="translate(879,165)" d="m0 0h5v3l3-1-1 4-5 4h-3z" fill="#C0192E"/>
<path transform="translate(928,273)" d="m0 0 4 1v5l-4 3-2 3-2-4 1-6z" fill="#C83728"/>
<path transform="translate(933,317)" d="m0 0h1l1 7 3 3-1 3 4 2-2 1-4-1-2 5h-1z" fill="#DC304D"/>
<path transform="translate(950,213)" d="m0 0h5l-5 4-4 2-11-3v-1z" fill="#23ADA5"/>
<path transform="translate(1486,457)" d="m0 0h9l5 2 1 8-3-1v-4l-9-2h-2z" fill="#0B3331"/>
<path transform="translate(832,339)" d="m0 0 4 4-1 5-1 2-4-2-2-4z" fill="#F5BC3E"/>
<path transform="translate(906,309)" d="m0 0 2 1v11l-2 6-4-2v-4l4-2-1-4-1-5z" fill="#EB858A"/>
<path transform="translate(970,144)" d="m0 0 4 1 3 9-1 4-5-5z" fill="#CE2927"/>
<path transform="translate(1764,471)" d="m0 0h7l2 6-5 4h-4v-2l3-1v-4l-4-2z" fill="#072220"/>
<path transform="translate(832,439)" d="m0 0 5 4 1-2 7 3-1 3h-8l-3-3z" fill="#22A9A1"/>
<path transform="translate(1682,482)" d="m0 0h4l-2 5-3 3h-4v-5z" fill="#EEEEEF"/>
<path transform="translate(1751,459)" d="m0 0 1 2-3 4-10-1-2 1 1-4 1-1 10 1z" fill="#051615"/>
<path transform="translate(935,185)" d="m0 0 4 2 1 3-2 3h-5l-1-1v-5z" fill="#16706A"/>
<path transform="translate(1743,482)" d="m0 0h3l-2 6-2 2-5-1 1-5z" fill="#F2ECEE"/>
<path transform="translate(1638,482)" d="m0 0h3l-2 6-4 3h-2v-7z" fill="#F2EFF1"/>
<path transform="translate(859,300)" d="m0 0h2l-2 4-8 11-5 3 1-3h2l2-4z" fill="#072221"/>
<path transform="translate(1763,473)" d="m0 0 5 1-1 5-7 1 1-5z" fill="#FDFBFB"/>
<path transform="translate(1567,470)" d="m0 0 6 1 2 2-1 4h-3l-1-3-6-1-1 2h-2l1-3z" fill="#0A2F2D"/>
<path transform="translate(924,452)" d="m0 0 7 1 3 3 1 8-3 3-1-9-5-4z" fill="#F9D426"/>
<path transform="translate(1459,470)" d="m0 0 4 2-1 4h-5l-3 3-1-3 4-5z" fill="#0A3331"/>
<path transform="translate(905,315)" d="m0 0 2 1-1 4-5 5h-4l-1-4 1-1 7-1z" fill="#DC3530"/>
<path transform="translate(820,383)" d="m0 0 2 2-3 7-3-1-1-5z" fill="#F9D426"/>
<path transform="translate(891,128)" d="m0 0h2l1 8-3 2-3-1z" fill="#C21B32"/>
<path transform="translate(913,231)" d="m0 0 4 1 1 3-6 3-4 4 1-5z" fill="#E24365"/>
<path transform="translate(885,458)" d="m0 0 1 4-4 9-4 2 1-5z" fill="#092D2B"/>
<path transform="translate(1541,471)" d="m0 0h6l-1 5h-5l-3 1 1-4h2z" fill="#061A19"/>
<path transform="translate(929,443)" d="m0 0 3 3 3 7v6l-2-4-3-3z" fill="#EA7D8F"/>
<path transform="translate(864,356)" d="m0 0 4 1 2 4-2 2-4-1-1-3z" fill="#DE3927"/>
<path transform="translate(856,345)" d="m0 0 5 1 1 4-5 1-2-2z" fill="#DE382A"/>
<path transform="translate(818,363)" d="m0 0h2l1 6-4 5h-2z" fill="#F7CD31"/>
<path transform="translate(1776,487)" d="m0 0h2v3l6 2-1 2-6-1-3-2z" fill="#082624"/>
<path transform="translate(1560,487)" d="m0 0 3 1 3 3 3 2-4 1-5-2-1-4z" fill="#082624"/>
<path transform="translate(895,313)" d="m0 0 5 1-1 5h-5v-5z" fill="#EA7D95"/>
<path transform="translate(923,458)" d="m0 0 4 2 1 4-4 1-2-2z" fill="#F9D426"/>
<path transform="translate(854,355)" d="m0 0 2 3v5l-7-1 1-3 4-1z" fill="#E14B47"/>
<path transform="translate(1782,470)" d="m0 0 6 1 2 2-1 4h-3v-4l-4-1z" fill="#0A302E"/>
<path transform="translate(908,154)" d="m0 0 2 1h6l-5 6-3-3z" fill="#E13C5B"/>
<path transform="translate(935,183)" d="m0 0 5 2 1 5-4-4-7 2 2-4z" fill="#F3B52C"/>
<path transform="translate(888,137)" d="m0 0h7l4 1v3l-10-1z" fill="#F9D426"/>
<path transform="translate(1593,464)" d="m0 0 2 2v12h-1l-1-5h-1v-7z" fill="#3B6465"/>
<path transform="translate(919,460)" d="m0 0h2l2 5 2 2-4 1-3-3z" fill="#F9D426"/>
<path transform="translate(903,259)" d="m0 0 2 4 4 10-1 2-6-11z" fill="#E55977"/>
<path transform="translate(884,190)" d="m0 0 4 1 5-1-1 6-1-3h-7z" fill="#EA8236"/>
<path transform="translate(901,140)" d="m0 0 3 1v2h2v4h-4v-3h-2z" fill="#EE9525"/>
</svg>
