<?xml version="1.0" encoding="UTF-8"?>
<svg version="1.1" viewBox="0 0 2048 945" width="732" height="338" xmlns="http://www.w3.org/2000/svg">
<path transform="translate(0)" d="m0 0h2048v945h-2048z" fill="#FCFCFC"/>
<path transform="translate(874,157)" d="m0 0 5 3v2h2l7 9 10 15 9 15 14 26 7 16 5 12 6 15 5 18 2 10v24l-5 18-6 11-7 9-7 7h-2v2l-12 8-22 12-6 2 3 5v2h2l5 6v2h2l11 16 7 12 7 19 3 15 1 11v10l-2 15-4 18-7 20-16 33-9 20-6 21-2 14v34l4 13 7 15 8 15 11 18 11 17 8 12 7-1 24-10 19-10 11-6 11-7 11-8 4-3h2v-2l6-5h2v-2l8-7 12-13 7-10 6-10 5-10 5-15 2-15v-12l-3-16-5-13-8-14-9-12-13-16-8-10-2-4h-2l-7-9-13-15-9-11-11-14-11-16-9-16-6-16-4-18v-30l6-29 7-16 7-11 7-9 8-7 5-5 12-9 15-7 12-3h25l16 4 15 6 16 9 11 9 8 9 7 12 3 10v18l-4 12-7 12-11 12-8 8-16 12-2-1 6-10 4-12 2-13-3-17-4-10-9-12-2-1v-2l-5-2-9-5-10-4-16-2-3-1-1 1-16 2-16 7-9 7-8 9-8 16-3 9-1 9v21l4 17 6 15 9 14 11 13 10 9 16 12 20 14 11 8 11 9 13 12 10 13 6 10 6 12 6 19 3 16 1 13v28l-2 10-5 15-8 14-6 8-9 10-10 10h-2v2l-20 15-18 11-27 14-21 9-18 7-22 7-21 6-31 7-30 4-14 1h-14l-23-2-22-5-15-5-16-7-13-7-16-11-5-4v-2l-4-2-8-8-9-12-6-9-8-18-5-23-1-10v-29l3-21 7-21 10-19 12-16 11-12 9-11 7-7 9-11 13-18 8-15 5-13 4-15 3-19v-35l-2-5-30-20-14-10-13-11-1-3h-2l-7-10-6-12-3-11-1-8v-25l4-22 5-17 6-16 7-15 8-16 12-19 10-14 7-9 4 1 5 6 5 5 10 13 9 17v2l10-2 15-1h12l11 2 5 2 8-16 12-21z" fill="#FCFCFC"/>
<path transform="translate(874,157)" d="m0 0 5 3v2h2l7 9 10 15 9 15 14 26 7 16 5 12 6 15 5 18 2 10v24l-5 18-6 11-7 9-7 7h-2v2l-12 8-22 12-6 2 3 5v2h2l5 6v2h2l11 16 7 12 7 19 3 15 1 11v10l-2 15-4 18-7 20-16 33-9 20-6 21-2 14v34l4 13 7 15 8 15 11 18 11 17 8 12 7-1 24-10 19-10 11-6 11-7 11-8 4-3h2v-2l6-5h2v-2l8-7 12-13 7-10 6-10 5-10 5-15 2-15v-12l-3-16-5-13-8-14-9-12-13-16-8-10-2-4h-2l-7-9-13-15-9-11-11-14-11-16-9-16-6-16-4-18v-30l6-29 7-16 7-11 7-9 8-7 5-5 12-9 15-7 12-3h25l16 4 15 6 16 9 11 9 8 9 7 12 3 10v18l-4 12-7 12-11 12-8 8-16 12-2-1 6-10 4-12 2-13-3-17-4-10-9-12-2-1v-2l-5-2-9-5-10-4-16-2-3-1-1 1-16 2-16 7-9 7-8 9-8 16-3 9-1 9v21l4 17 6 15 9 14 11 13 10 9 16 12 20 14 11 8 11 9 13 12 10 13 6 10 6 12 6 19 3 16 1 13v28l-2 10-5 15-8 14-6 8-9 10-10 10h-2v2l-20 15-18 11-27 14-21 9-18 7-22 7-21 6-31 7-30 4-14 1h-14l-23-2-22-5-15-5-16-7-13-7-16-11-5-4v-2l-4-2-8-8-9-12-6-9-8-18-5-23-1-10v-29l3-21 7-21 10-19 12-16 11-12 9-11 7-7 9-11 13-18 8-15 5-13 4-15 3-19v-35l-2-5-30-20-14-10-13-11-1-3h-2l-7-10-6-12-3-11-1-8v-25l4-22 5-17 6-16 7-15 8-16 12-19 10-14 7-9 4 1 5 6 5 5 10 13 9 17v2l10-2 15-1h12l11 2 5 2 8-16 12-21zm4 10-12 9-7 10-3 7-2 14 2 9-8-6-12-5-5-1h-14l-10 2-11 26-9 18 2-17 2-20-7 5 2-8v-9l-3-10-7-11-8-7-7-3-4 4-2 6h3l3 10 6 18 5 21 3 21v22l-5 33-2 3-2-18-5-21-9-22-15-24-2-2v-7l-2 1-6 11-7 14 5 5 10 15 10 18 12 25 7 22 6 32 2 13v8h-3l-1-5-13-25-12-18-8-10-14-15-12-12h-1v11l4 16 8 16 8 11 9 10 11 9 16 12 16 10 6 4 2 13 1 19-2 16-1 11-7 20-10 20-10 15-6 7-4 7-6 7-9 11-8 10v2h-2l-12 18-9 15-7 15-6 17-4 20v34l3 6 3 12 5 13 5 10h3l2 5v3l9 14 20-1 6-1-5 9-9 3-2 1 6 5 15 4 11 6 2 4 22 6h4l8-17 5-8-1 5-8 18-1 3 8 2 9-24 7-13h1l-5 11-4 14-1 11 3 2 15 1h19l1-1 18-1 24-4 28-7 7-3-6-7-9-10-9-13-12-20-10-21-8-22-3-13-1-10v-16l4-17 5-15 14-27 10-17 10-21 6-16 3-16v-19l-3-19-8-20-6-11-5-7-3 2-7-2-8-4h-2l-2-4-3-5-2-7 2-5 1-6 4-2v-2l6-1 9-3 5-3-3-2-5-2h-10v-2l30-2 11-8 11-12 8-14 5-13 2-14v-18l-4-4-6-4-4-5-1-8 2-10h2v17l2 1 2 4 4 2 2 2-1-8-5-14-8-18-8-14-12-19-14-23-8-16-4-7z" fill="#080707"/>
<path transform="translate(242,456)" d="m0 0 18 1 15 4 9 4 11 6 11 8 7 8 6 10 4 13 1 7-1 13-4 9-3 5-7 4-9 1-7-2-5-4-5-9-1-4v-10l3-6 4-3h9l8 4 3 1-5-15-7-9-8-7-16-9-16-4h-14l-15 2-18 6-14 9-3 3h-2l-2 4-6 7-9 15-5 11-6 16-4 18-2 22v11l3 24 4 17 8 20 9 14 12 13 2 1v2l4 2 9 6 12 5 13 3h23l16-4 16-7 14-8 1-53h-54v-13h116v8l-1 5-16 1h-10v59l6 7 4 10 1 3v7h-14l-3-11-4-5-10-5h-7l-28 14-15 5-17 3h-23l-16-3-19-7-16-9-14-12-8-8-13-17-6-10-8-19-4-14-3-21v-21l4-23 5-16 8-18 12-18 12-14 10-9 15-10 13-6 18-5 12-2z" fill="#080606"/>
<path transform="translate(485,541)" d="m0 0h30l1 75 21 1v8l-1 6-13 1h-6l-1 1v39l1 30 5-5 2-6h14l-2 12-6 9-7 5-6 2h-12l-8-3-9-8-3-5-1-7h-2l-1 9-8 9-8 4-10 2-11-3-8-6v-2l-5 3-12 6-4 1h-14l-9-2-10-5-9-8-6-10-5-13-1-7v-10l2-12 5-12 8-11h2v-2l14-8 7-2h13l10 3 7 3 1-3h31l1 82 3-1 4-9 4-1h7l3 2v-61l-12-1v-14h13v-75z" fill="#080606"/>
<path transform="translate(1829,456)" d="m0 0 9 2 8 4 3 3-1 4-6 6-7-1-8-3v231l5-2 4-9h13v8l-3 7-7 8-9 4-11 1-9-3-10-6-8 6-10 3-8 1-14-3-6-3-10-8-8-10-5-10-2-9v-18l4-13 7-12 4-5 9-7 13-5h14l11 3 5 3v-141l3-9 6-8 10-6 5-2z" fill="#080606"/>
<path transform="translate(1501,597)" d="m0 0h31l1 1v24l9-4 6-1h10l12 3 9 6 5 4 7 10 5 12 2 12-1 16-5 15-9 12-7 6-12 5-4 1h-14l-10-3-3-1v103l-1 2h-32v-222z" fill="#080606"/>
<path transform="translate(789,431)" d="m0 0 5 3 8 9 13 17 7 11 6 14 4 18 1 13-5 1 4 1 1 2v15l-3 7-2 10-6 15-8 11-10 10-11 7-10 4-11 1-5-3v-2h-2l2 4-1 1h-10l-10-3-2-1v-2l-5-1-8-6-8-4-4-5 3-4v-8l-3-3-1-4 6-9h2l2-5 8-9 16-20 3-5 6-8 8-12 11-22 6-19 2-14z" fill="#34ACAD"/>
<path transform="translate(878,167)" d="m0 0 3 3 8 16 6 11 15 24 11 18 1 3-16 4-17 6-16 8-9 6h-2v2l-11 8-8 7-9 11-11 16-8 16-6 16-3 16-2 9-1 27 2 17 6 21 8 19 12 20-1 2-8-10-9-15-10-21-7-19-7-25-5-36v-16l3-30 4-17 6-21 6-15 7-16 11-20 5-7h10l12 5 8 6-2-12 3-13 5-10 6-7z" fill="#E22259"/>
<path transform="translate(1333,617)" d="m0 0h11l10 5 7 8 9-6 12-6 5-1h11l12 5 3 3 5-1 12-6 7-1h10l10 3 8 5 6 6 3 8 1 63h2l6-11h12l1 1v7l-5 10-8 7-8 3h-12l-8-3-8-7-4-8-1-3-1-60-1-4h-9l-7 4-3 1v80l-1 1-32-1-1-85-7 1-6 4-6 7-3 6-1 67-5 1-27-1v-86l-5 4-4 8h-11l-2-1 1-9 4-8 9-7z" fill="#080606"/>
<path transform="translate(1642,617)" d="m0 0h13l10 3 6 3 2-3 30-1 1 1v83l4-2 5-10h12l1 6-3 9-5 6-10 6-9 2-10-2-8-5-3-3-16 8-5 1h-15l-12-4-9-6-8-9-7-14-2-10v-15l4-15 5-9 6-8 8-6 8-4z" fill="#080606"/>
<path transform="translate(1239,617)" d="m0 0h13l11 4 5 2v-3l30-1 1 1 1 82 4-2 3-8 13-1 1 1-1 10-5 8-7 6-9 3h-10l-9-3-7-6-11 6-9 3h-16l-11-4-8-5-5-4-9-14-3-8-1-6v-18l4-16 9-13 8-7 12-6z" fill="#080606"/>
<path transform="translate(925,259)" d="m0 0h6l6 15 2 8-1 4-2-3-4-2-1-3-2-1v-17h-2l-2 10 1 8 5 6 8 5 1 2v18l-2 14-5 13-6 11-4 3-17-3h-12l-18 4-16 8-8 6-10 10-8 13-5 12-3 18v15l4 16 7 16 8 12-2 1-8-11-8-14-6-14-6-25v-7l-1-5 1-18 5-22 3-3h4l3-6 4-2h3v-5l-6 1-4-3 8-15 13-18 9-11 8-7 12-10 19-12 17-8z" fill="#E2235D"/>
<path transform="translate(860,384)" d="m0 0h10l1 3-4 2-2 10-1 2 4 9 3 4v2l10 4 8 2 2-2 7 10 8 17 4 11 3 19v19l-4 19-7 18-8 16-13 23-3 3-6 10-9 12-6 7-1-3 5-12 5-16 4-24v-27l-2-17-4-15-2-5-1-8h2l-1-4-4-2-2-2-7-12-13-19-4-10v-17l6-12 6-7 9-6z" fill="#E2225C"/>
<path transform="translate(840,515)" d="m0 0h2l2 5 5 33 1 17-2 20-5 22-7 21-8 19-7 15-8 18-8 11-10 8-9 4-9 2h-7l-1-2 8-6-1-7-3-3h-10l-5 5 2 5 4 5-6-1-9-7-7-10-2-4-1-6v-10l3-10 6-9 6-5 6-3 4-3 16-8 4-3h2v-2l11-9 5-5h2l2-5 11-14 8-16 8-18 4-13 2-12z" fill="#FBD22B"/>
<path transform="translate(582,617)" d="m0 0h15l11 4 10 6 8 10 6 13 3 15-1 14-5 14-8 12-9 8-8 4-9 2h-13l-8-2-8-4-10-9-7-11-4-10-2-11v-8l3-14 8-16 6-7 11-7 5-2z" fill="#080606"/>
<path transform="translate(1888,617)" d="m0 0h14l8 2 10 5 9 8 8 14 3 9 1 5v15l-4 15-5 9-5 7h-2v2h-2v2l-7 5-12 4-9 1-13-2-8-4-9-7-9-13-4-10-2-8v-15l3-12 6-12 4-6 11-9 10-4z" fill="#080606"/>
<path transform="translate(1139,541)" d="m0 0h30l1 1 1 74 20 1v14l-20 1-1 70 4-1 3-6 1-4h13l1 1v7l-5 10-8 7-9 3h-11l-7-3-7-5-5-8-1-3-1-69h-12v-14l12-1z" fill="#080606"/>
<path transform="translate(859,653)" d="m0 0h3l7 23 9 21 10 19 13 20 11 13 7 7-1 2-21 6-17 4-20 3-19 1-3-2-1-7v-37l2-21 4-19 5-14 10-18z" fill="#FBD02D"/>
<path transform="translate(802,252)" d="m0 0h12l6 3 6 4 4 4 3 8-1 5 2 5-4 10-6 7-6 3-15 3 2 6 8 16 1 3-5 13-3 16-2 9-1 27 2 17 6 21 8 19 12 20-1 2-8-10-9-15-10-21-7-19-7-25-5-36v-16l3-30 4-17 6-21z" fill="#E2265D"/>
<path transform="translate(771,489)" d="m0 0h13l6 3 2 2 4 5 2 5 3 3v4h3l3 7-4 21-1 4-6 10-5 2-3 1-1 3-7 2-1 3-2 1h-10l-20-4v-2l-4-1-3-3v-2h-2l-2-5-4-4h3l-1-4 4-7 6-7 8-10 3-5 6-8 8-12z" fill="#B91935"/>
<path transform="translate(720,240)" d="m0 0 4 2 12 18 10 18 12 25 7 22 6 32 2 13v8l-2 1-2-1-10-21-12-20-12-16-15-16-12-12v-16l3-14 6-18z" fill="#E22660"/>
<path transform="translate(735,603)" d="m0 0h16l6 3 6 8 1 2v9l-4 10-6 8-20 15-6 7-3 7-1 5v10l3 9 6 9 9 8 3 1-1 2-12-6-10-9-6-7-6-11-3-9-1-5v-29l5-14 6-10 9-9 5-3z" fill="#2BA9AA"/>
<path transform="translate(878,167)" d="m0 0 3 3 8 16 6 11 4 6v2l-8 5h-6v6l-5 3h-2l2 3v7l-5 3-6-1-1-1-11 1-4-1-1 4-4 3-5-1-3-2-1-8-5-1-5-4-10-1v-4l6-10 1-1h10l12 5 8 6-2-12 3-13 5-10 6-7z" fill="#EB8AA7"/>
<path transform="translate(755,180)" d="m0 0h3l9 24 6 25 3 21v22l-5 33-2 5-2-2-2-18-5-21-9-22-15-24-2-2 1-9 12-19z" fill="#E22962"/>
<path transform="translate(1904,634)" d="m0 0 6 1 7 5 6 10 3 9 1 13-2 11-5 9-5 5-7 4-5 1-8-4-4-5-4-13-1-16 3-16 5-8 6-5z" fill="#FDFDFD"/>
<path transform="translate(595,634)" d="m0 0 9 1 8 7 6 12 2 7v14l-2 9-4 8h-2l-2 4-7 4-6 2-9-4-4-6-3-9-1-6v-18l3-12 5-8 5-4z" fill="#FDFDFD"/>
<path transform="translate(1251,633)" d="m0 0 6 1 6 4 5 5v50l-8 8-6 2-7-1-8-9-4-11-1-5v-15l3-14 6-10 5-4z" fill="#FDFDFD"/>
<path transform="translate(1655,633)" d="m0 0 7 1 7 5 3 4v51l-8 7-9 2-6-3-5-6-4-10-2-13 1-13 3-12 6-8 4-4z" fill="#FDFDFD"/>
<path transform="translate(413,633)" d="m0 0 6 1 6 4 4 5v51l-5 5-5 3-7 1-7-4-6-10-3-11v-18l3-13 6-9 4-4z" fill="#FDFDFD"/>
<path transform="translate(925,259)" d="m0 0h6l6 15 2 8-1 4-2-3-4-2-1-3-2-1v-17h-2l-2 10 1 8 5 6 8 5 1 2v18l-2 12-6-1-5-3v-2l-8 1-1 2v-2l-5-1-2-4-2-1 1-7 1-2-7 1-5-3-2-5v-3h2v-5l-9-5-2-1-1-2 4-4 17-9z" fill="#EA2D2E"/>
<path transform="translate(1777,634)" d="m0 0h9l6 3 4 5v53l-11 8-8-1-5-5-4-5-4-11-1-6v-14l3-13 5-9z" fill="#FDFDFD"/>
<path transform="translate(863,660)" d="m0 0 2 4 8 22 12 25 15 24 12 14 7 7-1 2-21 6h-5l-3-6-11-13-5-10-6-15-2-6-2-17-1-24z" fill="#FDFDFD"/>
<path transform="translate(1542,633)" d="m0 0 7 1 8 7 4 8 2 9v20l-2 9-5 10-6 5-2 1h-6l-9-6-1-2v-20l1-35 7-6z" fill="#FDFDFD"/>
<path transform="translate(860,384)" d="m0 0h10l1 3-4 2-2 10-1 2 4 9 3 4v2l10 4 7 2-1 3-10-1-5-1-6 11-8 5-4 1h-8l-5-2h-5l-4-10v-17l6-12 6-7 9-6z" fill="#F4A535"/>
<path transform="translate(789,431)" d="m0 0 5 3 8 9 13 17 7 11 6 14 1 10-8 5-10 2-5-2-4-5-1-2v-9l2-7h-19v-2l-4-1 1-9 5-15 2-14z" fill="#EB8CA8"/>
<path transform="translate(708,293)" d="m0 0 7 6 15 15 7 8 11 15 9 15 12 23 1 5-4-1-14-10-10-8-8-7-9-11-7-10-6-13-4-16z" fill="#FCFCFC"/>
<path transform="translate(906,450)" d="m0 0 2 2 4 16 1 11v17l-4 19-7 18-8 16-13 23-3 3-6 10-9 12-6 7-1-3 5-12 5-16 4-24 1-13 4 3v5l5-3h2l2-5 10-8h5l3-8 4-20 2-19v-21z" fill="#CC243A"/>
<path transform="translate(800,257)" d="m0 0h13l10 5 5 7 1 11-4 10-6 5-7 3h-7l-7-3-5-5-2-3 2-11 5-15z" fill="#BC1A32"/>
<path transform="translate(890,420)" d="m0 0 4 4 8 14 3 7v3l-8 7-5 3-6 2-7-1-8-5-4-5-3-9-1-2-5 1 4-3 5-5 5-9 9 2h6z" fill="#EC3030"/>
<path transform="translate(908,219)" d="m0 0 4 5 9 15 1 3-16 4-17 6-16 8-9 6h-2l1-5 8-5v-13l7-5h8l1-9 5-5h7l6 2v-3l2-1z" fill="#FBD22B"/>
<path transform="translate(882,302)" d="m0 0h9l4 3 1 4v11l-7 5 1 13 7 7-3 2-18 4h-4v-3h-2v-2l7-1-9-3-4-7 1-9 5-4 9-1 5 3 3 5v8l-1 3 1-2v-11l-4-6-2-1h-12l5-5-2-6z" fill="#EC2D2D"/>
<path transform="translate(786,354)" d="m0 0 3 1 11 1 4 2 1 5-1 4-1 27 2 17 6 21 8 19 12 20-1 2-8-10-9-15-10-21-7-19-7-25-3-21z" fill="#FBD12B"/>
<path transform="translate(789,657)" d="m0 0 9 1 6 4 5 8v8l-3 6-8 7-2 1h-7l-7-4-6-8-1-2v-11l6-7z" fill="#EC2D2D"/>
<path transform="translate(831,265)" d="m0 0h22l5 3-2 4-13 11-9 11-11 16-8 16-3 1-3-7-5-10-2-6 4-2 15-3 6-5 4-7 2-8-2-4 1-4-1-1z" fill="#B91832"/>
<path transform="translate(854,733)" d="m0 0h7l7 6 6 9-1 7-3 5-10 5h-11l-5-4-3-7v-7l4-8 5-4z" fill="#EB8CA7"/>
<path transform="translate(859,653)" d="m0 0h3l1 2v20l1 24-9 4-8-1-5-4v-8l6-18 10-18z" fill="#EB393D"/>
<path transform="translate(758,507)" d="m0 0h1v5h6l3-4h3l1 2v7l5-2h4l1 4-2 4v2h2l1 6h-6v8l-5 1v-2l-3 1-1-1-2 4h-4v-8l-9 2-1-5 2-4-5-3-2-2 5-6 3-5z" fill="#BE1936"/>
<path transform="translate(811,556)" d="m0 0 6 1 7 3-2 7-8 11-10 10-11 7-10 4h-5l5-5 7-3 1-2h-2l-2-4v-8l2-3 3-1h12v-10l3-5z" fill="#EB2E2F"/>
<path transform="translate(756,570)" d="m0 0 4 1 3 2v3h8l1 2 1 11 1 4-3 6-4-2v-2h-2l2 4-1 1h-10l-10-3-3-3 1-7-1-8 1-1h8l2-7z" fill="#EA4B42"/>
<path transform="translate(815,384)" d="m0 0 2 4 6 2 6 5 1 2-3 14-1 7v15l4 16 7 16 8 12-2 1-8-11-8-14-6-14-6-25v-7l-1-5z" fill="#E32F66"/>
<path transform="translate(814,597)" d="m0 0 4 4 1 3v14l-4 6-7 6-2 1h-13l-5-2-2-3 11-9 5-5h2l2-5z" fill="#EB88A5"/>
<path transform="translate(886,715)" d="m0 0 4 4 11 17 11 13 7 7-1 2-15 3h-4l-12-36z" fill="#FBD433"/>
<path transform="translate(806,264)" d="m0 0 6 1 8 7 1 2-1 9-6 5-3 1h-8l-6-6v-10l4-6z" fill="#080606"/>
<path transform="translate(802,252)" d="m0 0h12l6 3 6 4 4 4 3 8-1 5 2 5-4 10-6 7-6 3-15 2-9-5-4-4 1-7 5 5v2l9 3h7l10-5 5-8 1-10-2-6-4-6-9-4-13-1z" fill="#F9C62D"/>
<path transform="translate(871,512)" d="m0 0 11 3 8 6 4 4v4l-10 8-2 4-5 3h-2l-2-6-2-2z" fill="#B81831"/>
<path transform="translate(820,514)" d="m0 0 6 1v2l6 1 1 2v15l-3 6h-14l-3-9-1-2v-7z" fill="#DEAA5D"/>
<path transform="translate(786,354)" d="m0 0 3 1 11 1 4 2 1 5-1 4-1 21h-1l-1-9h-2l-2 4-4 5h-3l-4-26z" fill="#FBD22B"/>
<path transform="translate(742,666)" d="m0 0h10l5 4 2 4v9l-7 7h-9l-3-5-1-6v-10z" fill="#EB8CA8"/>
<path transform="translate(851,322)" d="m0 0h7l1 3h4l-1 10 2 7-3-2-3 4h-7l-6-2-3-5v-7l5-6z" fill="#EB2C2D"/>
<path transform="translate(878,238)" d="m0 0h9l4 9v2l2 1-16 8-13 8h-2l1-5 8-5v-13z" fill="#F4A533"/>
<path transform="translate(701,590)" d="m0 0 4 1 2 3v21l-4 6-10 4h-3l-1-6 5-16 1-2h5l-1 8 2-4h2l-1-8-1-1z" fill="#FBD536"/>
<path transform="translate(803,207)" d="m0 0 4 1-10 24-8 16-3 3 1-12 3-23 3-5z" fill="#EB373A"/>
<path transform="translate(906,450)" d="m0 0 2 2 4 16 1 11v17l-4 19-7 18-7 13-1-3 6-16 3-10 4-25 1-11v-21z" fill="#FCFAFB"/>
<path transform="translate(787,450)" d="m0 0h5l1 2-1 3v8l4 4 9 4-1 4-4 1h-16l-4-2 1-9 5-14z" fill="#E22560"/>
<path transform="translate(831,265)" d="m0 0h22l5 3-2 4-10 8h-9l-4-1-2-4 1-4-1-1z" fill="#B61731"/>
<path transform="translate(834,565)" d="m0 0 6 1 3 4v9l-4 5-5 2-6-1-3-4 1-6 4-9z" fill="#EC3030"/>
<path transform="translate(860,384)" d="m0 0h6l-5 12-1 2-17 4-8 6 1-6 7-9 10-7z" fill="#EB2F30"/>
<path transform="translate(846,635)" d="m0 0 2 1-4 18-6 16-8 17-4 2-6-2 2-5 5-6 9-15 8-19z" fill="#E02E63"/>
<path transform="translate(776,489)" d="m0 0h8l6 3 2 2 4 5 2 5 3 3v4h3l3 7-1 6h-4v2l-6 4-2 3h-2l2-4 7-9v-2l-2-4-1-1-5 1v-3l4-1-1-5-9-3v-2l-2-1v-4l-7 1z" fill="#D01E50"/>
<path transform="translate(763,691)" d="m0 0h10l4 4 1 7-7 6h-6l-7-7-1-4 4-5z" fill="#EC90AB"/>
<path transform="translate(716,326)" d="m0 0 5 3 14 14 10 13 5 8-3 1-11-9-9-10-9-13-2-4z" fill="#E43A6C"/>
<path transform="translate(815,384)" d="m0 0 2 4 6 2 6 5 1 2-3 14-1-2-9 2-2 3v-7l-1-5z" fill="#EB88A5"/>
<path transform="translate(770,722)" d="m0 0h3l1 6 9 1 1 7 2-1 1-8 11 2-2 4-9 7-6 4-8-11-11-6v-2z" fill="#289A9B"/>
<path transform="translate(894,528)" d="m0 0h5v4l-2 4-7 4-3 1-1 6-4 2 1 6-4 4-5-1v-7l4-3-2-4 4-3h2l2-5z" fill="#F9C42D"/>
<path transform="translate(872,324)" d="m0 0h8l4 5v8l-4 4h-9l-4-4v-9l3-3z" fill="#FCE384"/>
<path transform="translate(894,536)" d="m0 0h3l-1 5-3 10-11 19h-1l-1-7-4-2v-2l5-3 1-4v-4l3-1 2-6z" fill="#C93143"/>
<path transform="translate(833,628)" d="m0 0h4l-1 5-8 19-7-3-1-3v-10l3-3z" fill="#EC8BA7"/>
<path transform="translate(898,746)" d="m0 0h9l6 4 6 7-4 2-16 2-3-9v-5z" fill="#F39640"/>
<path transform="translate(807,699)" d="m0 0 1 4 1 8 1 5-4 4-10-2v2l-6-1-2 5-2 2-2-1-2-9h5v-2h2v-2h3l3 3h8l-2-7-2-2z" fill="#1F7172"/>
<path transform="translate(827,243)" d="m0 0 4 1v2h3v4l4 1-1 5-5 1-2 4-5-2-6-4v-10l6-1z" fill="#B71731"/>
<path transform="translate(768,508)" d="m0 0h3l1 2v7l5-2h4l1 4-2 4v2h2l1 6h-6v8h-3l-1-3-3 1-1-3 1-2h2v-6l1-2-1-4-5-1z" fill="#E82D44"/>
<path transform="translate(834,279)" d="m0 0 11 1-6 8-8 10-7 11-4-2 1-5 1-4 5-4 4-7 2-6z" fill="#C21B34"/>
<path transform="translate(867,567)" d="m0 0 2 4 4 2 1 9-11 15-6 7-1-3 5-12 5-16z" fill="#E22F5B"/>
<path transform="translate(736,730)" d="m0 0h6l-1 4-4 6-9 3-5-3-6-7v-1z" fill="#E93539"/>
<path transform="translate(859,653)" d="m0 0h3l1 2v18l-1 1h-12l-1-3 9-17z" fill="#FCD530"/>
<path transform="translate(851,681)" d="m0 0 9 1 1 3v7l-3 3-7 1-5-4-1-5 3-5z" fill="#F9C72D"/>
<path transform="translate(873,321)" d="m0 0 9 1 4 5 1 2v8l-4 5-4 2h-7l-5-3-3-6 1-9 5-4zm-1 3-4 2-1 2v9l4 4h9l4-4v-8l-4-5z" fill="#090606"/>
<path transform="translate(869,395)" d="m0 0 4 1 5 9 9 9v2h-8l-6-4-4-8-1-8z" fill="#FBD13D"/>
<path transform="translate(860,185)" d="m0 0 4 1 2 8-1 7-6 6h-5l2-14z" fill="#F4A644"/>
<path transform="translate(851,745)" d="m0 0h11l2 4v5l-6 4h-6l-4-6 1-6z" fill="#FBD12B"/>
<path transform="translate(859,461)" d="m0 0h8l3 3v9l-6 2-8-5-2-4v-4z" fill="#EC2D2D"/>
<path transform="translate(764,576)" d="m0 0h7l1 2 1 11 1 4-3 6-4-2v-2h-2v-8l-2-10z" fill="#E9332E"/>
<path transform="translate(871,319)" d="m0 0h10l5 4 2 4v11l-4 4 2-7v-6l-4-6-9-1-6 3-2 4 1 9 4 4 9 2-2 2h-7l-6-4-3-7v-6l4-6z" fill="#FAD057"/>
<path transform="translate(908,219)" d="m0 0 4 5 9 15 1 3-8 1 2-1-7-8-5-6-3-2h4v-3l2-1z" fill="#F4A53C"/>
<path transform="translate(687,642)" d="m0 0h4l3 3-1 7-2 9-1 14-3-4-1-2v-26z" fill="#E44C78"/>
<path transform="translate(888,329)" d="m0 0h1l1 9 7 7-3 2-18 4h-4v-3h-2v-2l9-1v-2l7-3 1-2z" fill="#ED4B36"/>
<path transform="translate(815,731)" d="m0 0v3l-5 11-4 14-1 10-2 1-3-1v2h-2l1-8 6-16 7-13z" fill="#299495"/>
<path transform="translate(756,570)" d="m0 0 4 1 2 5v4l1 2 1 9-2 3-2-4v-5h-3l-1 7-3-1 1-9 1-2-3-2 2-7z" fill="#EA2C2D"/>
<path transform="translate(796,334)" d="m0 0h6l6 3-2 9-3 5-5-2-1-1v-5h2l-4-4z" fill="#F5AC32"/>
<path transform="translate(848,672)" d="m0 0h2v2h12v18h-1l-1-10h-9l-6 2 2-9z" fill="#EC2F2E"/>
<path transform="translate(695,601)" d="m0 0h5l-1 8 2-4h2l-1 7-5 5-5 3h-2l-1 2 2-11z" fill="#FCDD60"/>
<path transform="translate(795,536)" d="m0 0h8v6l-7 11-5 2-4 1 2-10 4-2 1 3 3-6-3-2z" fill="#D42057"/>
<path transform="translate(789,292)" d="m0 0 5 5 7 5-1 4-6 3-1 2h-5v-9z" fill="#BB1931"/>
<path transform="translate(929,259)" d="m0 0h2l6 15 2 8-1 4-2-3-4-2-1-3-2-1z" fill="#E04449"/>
<path transform="translate(880,541)" d="m0 0 4 1 2 1-1 5-3 1 1 6-4 4-5-1v-7l4-3-2-4z" fill="#F9C52D"/>
<path transform="translate(798,507)" d="m0 0 3 1v3h3l3 7-1 6h-4v2l-6 4-2 3h-2l2-4 7-9v-2l-2-4-1-1-5 1v-3l4-1z" fill="#DC1F59"/>
<path transform="translate(765,642)" d="m0 0 4 1-1 7-9 6-5-1-2-4 2-3 7-2z" fill="#EC2D2D"/>
<path transform="translate(718,560)" d="m0 0 4 5 1 1v8l-2 3-5-1-4-5 1-4z" fill="#F5AE45"/>
<path transform="translate(886,370)" d="m0 0h16l-5 5-6 3-8-3-10-1v-2z" fill="#2CAAAB"/>
<path transform="translate(718,716)" d="m0 0 5 1v3l6-1 9 3-3 4-7 1-7-2-3-3-1-4z" fill="#2CAAAB"/>
<path transform="translate(818,516)" d="m0 0h2l2 4-2 9-2 7h-4l-2-6v-7z" fill="#F6B461"/>
<path transform="translate(774,667)" d="m0 0h1l1 11 6 9 7 4 7 1-4 2-10-2-6-5-2-1v-2h-2l-3-6 2-5 2 4v-8z" fill="#F4A534"/>
<path transform="translate(899,748)" d="m0 0 10 1 5 5 2 3-7 1-5-3-5-1-1 4-2-9z" fill="#EC2E2D"/>
<path transform="translate(764,639)" d="m0 0h5l-1 4-3-1-2 4-3 2-6 1-1 3 2 3 4 2-7 1-3-3-1-5 6-5 6-3z" fill="#F4AA33"/>
<path transform="translate(827,345)" d="m0 0 10 1 1 5-4 1-4 2-3 6-5-1z" fill="#F8C144"/>
<path transform="translate(872,327)" d="m0 0h7l2 4v5l-4 3-6-1-2-3 1-7z" fill="#248889"/>
<path transform="translate(807,699)" d="m0 0 1 4 1 8 1 5-4 4-5-1 2-1-1-9-3-3z" fill="#269293"/>
<path transform="translate(791,287)" d="m0 0 5 5v2l12 4 1 4-6 1-9-5-4-4z" fill="#F9C42E"/>
<path transform="translate(781,555)" d="m0 0 4 2-3 4h-2l-1 3-2 1h-10l-2-4v-4l5 2 1 3h3l1-4z" fill="#DD215B"/>
<path transform="translate(761,572)" d="m0 0 2 1 3 15-1 7-3 1-6-3v-8l4-1 1 2 1 7 1-3-1-9-4-2h3z" fill="#DAEFEF"/>
<path transform="translate(744,578)" d="m0 0h9l3 3-2 6-1 4-3-1-1-4 1-2-6 1-1-1v-5z" fill="#E96384"/>
<path transform="translate(741,549)" d="m0 0h3v6l6-2v3l1 2 2-4h2l2 8-10-1v-2l-4-1-4-5 2-1z" fill="#D82859"/>
<path transform="translate(755,528)" d="m0 0 6 1v3l5 1v9h-4v-8l-9 2-1-5z" fill="#EA7F94"/>
<path transform="translate(768,508)" d="m0 0h3l1 2v7l8-1-2 6-4 1-2-1v-2l-5-1z" fill="#EB6C8A"/>
<path transform="translate(866,719)" d="m0 0 3 3 7 18-2 1v-3h-2l-4-4-3-2v-11z" fill="#EB8A9E"/>
<path transform="translate(695,629)" d="m0 0h7l-3 9-2 3-5-1v-8z" fill="#FBD22D"/>
<path transform="translate(801,378)" d="m0 0h1v10l-6 4-5-1v-3l5-5z" fill="#F4A533"/>
<path transform="translate(831,568)" d="m0 0 5 2 2 4-3 5h-6l-2-6h2z" fill="#F3A435"/>
<path transform="translate(834,279)" d="m0 0 11 1-6 8h-6l-2 1 1-7z" fill="#E52650"/>
<path transform="translate(798,332)" d="m0 0 10 1 2 1-1 9-2 9-2 1v-2l-2-1 4-10 1-3-4-1-2-1h-6l-2 4v-5z" fill="#EC2D2D"/>
<path transform="translate(854,667)" d="m0 0 8 1v6h-12l-1-3 2-3z" fill="#F4A533"/>
<path transform="translate(815,446)" d="m0 0 3 3 10 17 3 5-1 2-8-10-8-13z" fill="#ED4E41"/>
<path transform="translate(868,413)" d="m0 0 3 1v2l10 4 7 2-1 3-10-1-7-6z" fill="#FACA46"/>
<path transform="translate(760,580)" d="m0 0 3 1 1 10-2 3-2-4v-5h-3l-1 7-3-1 1-9z" fill="#151414"/>
<path transform="translate(764,576)" d="m0 0h7l1 2v10l-3-1 2-3-5 1v-4l-3-1z" fill="#E32D61"/>
<path transform="translate(758,507)" d="m0 0h1v5l5 1-1 6-4 1-1-3-5-2 2-4z" fill="#EC8AA6"/>
<path transform="translate(808,240)" d="m0 0 4 1-1 10-7-1 1-7z" fill="#B91933"/>
<path transform="translate(701,605)" d="m0 0h2l-1 7-5 5-5 3h-2l-1 2 1-7 7-2 2-4z" fill="#2CAAAB"/>
<path transform="translate(847,390)" d="m0 0m-1 1m-2 1 2 1-2 2 1 5h-2v2l-8 6 1-6 7-9z" fill="#E5315B"/>
<path transform="translate(873,319)" d="m0 0h8l5 4 2 4v11l-4 4 2-7v-6l-4-6-9-1-2-1z" fill="#FADB7D"/>
<path transform="translate(899,754)" d="m0 0 8 1 2 2 4 2-10 2h-4l-1-3z" fill="#F4A735"/>
<path transform="translate(756,721)" d="m0 0h6v2l-22 4 1-4 1-1z" fill="#0B1414"/>
<path transform="translate(866,384)" d="m0 0 5 1v2l-4 2-2 10h-3v-7z" fill="#FACE46"/>
<path transform="translate(851,681)" d="m0 0 4 1v4l1 5-5-2-1-2 1-4-3 3 1 6 1 2-4-2-1-5 3-5z" fill="#F4A534"/>
<path transform="translate(720,333)" d="m0 0 5 5 11 14-1 3-12-14-3-5z" fill="#F06464"/>
<path transform="translate(880,541)" d="m0 0 4 1 2 1-1 5h-7l-2-4z" fill="#FACD2C"/>
<path transform="translate(831,454)" d="m0 0 2 3 6 11 6 9-2 1-8-11-5-8z" fill="#EB88A5"/>
<path transform="translate(859,461)" d="m0 0m-5 1 7 1v2h-2l4 6-1 2-4-2-2-2-2-3z" fill="#F0743B"/>
<path transform="translate(872,324)" d="m0 0h8l3 4-4 1v-2l-10 2-1 5h-1v-6l3-3z" fill="#FAD355"/>
<path transform="translate(745,674)" d="m0 0h3l2 7-4 2-4-3 1-5z" fill="#F7B42F"/>
<path transform="translate(826,299)" d="m0 0 4 1-6 9-4-2 1-5z" fill="#EA323F"/>
<path transform="translate(869,257)" d="m0 0h4l-1 4-8 5h-2l1-5z" fill="#FACD2C"/>
<path transform="translate(751,517)" d="m0 0 2 3 6 2v3h-7l-5-2z" fill="#EB84A1"/>
<path transform="translate(768,528)" d="m0 0 2 2-1 4 2 2 3-1v4l2 1h-4v-2l-3 1-1-1-2 3-1-9z" fill="#E52D50"/>
<path transform="translate(833,346)" d="m0 0h4l1 5-4 1-6 1 1-5z" fill="#FBEAB8"/>
<path transform="translate(761,572)" d="m0 0 2 1 3 15-2 3-2-5v-5l-4-2h3z" fill="#FDFDFD"/>
<path transform="translate(840,569)" d="m0 0 3 1v9l-2 3-4-1 2-4z" fill="#E32253"/>
<path transform="translate(823,523)" d="m0 0 5 1 3 4-1 4-5 2-1-3 5-1-5-5-3 6-1-3z" fill="#080606"/>
<path transform="translate(739,730)" d="m0 0h3l-1 4-4 6-4 2-4-1 7-4 1-6z" fill="#C41E33"/>
<path transform="translate(819,529)" d="m0 0 3 4h-2l2 3v4l-7-1 1-4 2-3z" fill="#EC2D2D"/>
<path transform="translate(875,561)" d="m0 0 5 1 1 5h-8l1-5z" fill="#F9C62D"/>
<path transform="translate(796,334)" d="m0 0h6l3 3-3 2-2 1v-2h-2v2l-3-1z" fill="#E4A82D"/>
<path transform="translate(857,750)" d="m0 0h7l-1 5-5 1-2-1z" fill="#F29533"/>
<path transform="translate(918,284)" d="m0 0 2 1-5 5-4-1h-3v-4h9z" fill="#B61732"/>
<path transform="translate(819,515)" d="m0 0 6 1v5l2 2-5 2-2 3 1-8z" fill="#E72B2D"/>
<path transform="translate(832,282)" d="m0 0h5l1 2 4-1-2 4-2 1h-5l-2 1z" fill="#E02730"/>
<path transform="translate(865,194)" d="m0 0 1 4-3 6-4 3h-5l1-8h1v6l5-3z" fill="#ED3D3D"/>
<path transform="translate(789,671)" d="m0 0h5l1 5-1 1h-5l-1-5z" fill="#F5B031"/>
<path transform="translate(819,635)" d="m0 0 2 1v11l3 4-4-1-2-2v-9z" fill="#F28833"/>
<path transform="translate(775,516)" d="m0 0h5l-2 6-4 1-1-5z" fill="#EE9CB2"/>
<path transform="translate(753,515)" d="m0 0 6 2v3l2 1-3 1-6-2z" fill="#CF1D46"/>
<path transform="translate(770,532)" d="m0 0h6l1 7h-3l-1-3-3 1-1-3z" fill="#EE94AD"/>
<path transform="translate(830,339)" d="m0 0h1v5l7 1 1 1v5l-2-3v-2l-6 1-4-3z" fill="#EC3930"/>
<path transform="translate(846,635)" d="m0 0 2 1-3 14h-3l1-5z" fill="#E4527B"/>
<path transform="translate(763,533)" d="m0 0h3v9h-4v-7z" fill="#F1B1C4"/>
<path transform="translate(774,526)" d="m0 0 8 1 1 4-9-1z" fill="#F0A4B7"/>
<path transform="translate(882,328)" d="m0 0 2 1v8l-5 1 1-7v-2z" fill="#FCF1CF"/>
<path transform="translate(875,570)" d="m0 0h6v2l-6 6-1-6z" fill="#F7BB3D"/>
<path transform="translate(782,716)" d="m0 0 4 1v3l2 1-1 5-3-1z" fill="#0E2121"/>
<path transform="translate(796,721)" d="m0 0 6 1v4l-2 3h-2z" fill="#133"/>
<path transform="translate(747,584)" d="m0 0h3l-1 4 2 1v2l-4-1-3-3v-2z" fill="#D4322F"/>
<path transform="translate(753,554)" d="m0 0h2l2 8-7-1 2-5z" fill="#E32B60"/>
<path transform="translate(759,523)" d="m0 0 2 3-1 3h-5l-2 1v-4-1h6z" fill="#DF2055"/>
<path transform="translate(832,351)" d="m0 0h6l-1 4-5 3v-4l-2-1z" fill="#EE4B2E"/>
<path transform="translate(749,672)" d="m0 0 3 2v6h-3l-1-6-2-1z" fill="#FDFDFD"/>
<path transform="translate(777,515)" d="m0 0h4l1 4-2 4v2h2v2l-5-1 3-10z" fill="#E53963"/>
<path transform="translate(802,337)" d="m0 0h3l-1 4-2 2h-3l-1-5h2l1 1z" fill="#FDFDFD"/>
<path transform="translate(767,510)" d="m0 0 2 4-2 1v3l-4 1 2-7z" fill="#E22D5B"/>
<path transform="translate(864,476)" d="m0 0h1v8l-2 3-2-10z" fill="#E44C39"/>
<path transform="translate(831,454)" d="m0 0 2 3 3 6-1 3-5-7z" fill="#E9698A"/>
<path transform="translate(807,342)" d="m0 0 2 1-2 9-2 1v-2l-2-1z" fill="#EB3E44"/>
</svg>
