<?xml version="1.0" standalone="no"?>
<!DOCTYPE svg PUBLIC "-//W3C//DTD SVG 20010904//EN"
 "http://www.w3.org/TR/2001/REC-SVG-20010904/DTD/svg10.dtd">
<svg version="1.0" xmlns="http://www.w3.org/2000/svg"
 width="108.000000pt" height="28.000000pt" viewBox="0 0 108.000000 28.000000"
 preserveAspectRatio="xMidYMid meet">

<g transform="translate(0.000000,28.000000) scale(0.100000,-0.100000)"
fill="#000000" stroke="none">
<path d="M419 222 c-7 -19 -6 -29 6 -42 19 -21 19 -54 1 -69 -8 -7 -13 -26
-13 -44 3 -42 34 -59 85 -45 73 20 92 61 47 102 -14 13 -25 30 -25 39 0 24 22
32 35 13 11 -14 13 -15 18 -1 9 21 -29 40 -49 24 -11 -9 -14 -9 -14 0 0 8 -8
10 -20 6 -15 -5 -18 -3 -14 9 3 9 11 13 16 10 6 -4 9 -1 6 7 -2 7 -19 14 -37
15 -26 1 -34 -3 -42 -24z m36 -11 c-3 -5 3 -12 12 -15 19 -7 83 -100 83 -121
0 -21 -28 -37 -74 -41 -48 -5 -65 8 -46 31 9 11 9 15 1 15 -6 0 -11 4 -11 9 0
4 11 6 25 3 14 -2 25 -9 25 -14 0 -5 -4 -6 -10 -3 -17 11 -11 -1 11 -21 21
-19 22 -19 15 2 -4 12 -1 33 5 48 9 20 9 32 1 51 -12 25 -32 34 -32 14 0 -5 5
-7 10 -4 6 3 10 1 10 -4 0 -6 -6 -11 -12 -12 -10 0 -10 -2 0 -6 6 -2 12 -16
12 -31 0 -35 -19 -16 -29 29 -4 19 -11 44 -15 57 -6 17 -3 22 9 22 9 0 14 -4
10 -9z"/>
<path d="M136 158 c-20 -28 -20 -58 -2 -83 12 -16 28 -20 102 -21 l89 -2 -4
44 c-4 54 -21 58 -22 7 -1 -21 -3 -30 -6 -20 -6 24 -42 21 -54 -6 l-10 -22 5
22 c5 29 -20 31 -27 2 -8 -30 -49 -22 -61 13 -14 39 6 78 40 78 19 0 25 -4 20
-15 -3 -8 -1 -15 5 -15 6 0 9 8 7 18 -5 28 -62 28 -82 0z m144 -77 c0 -6 -4
-13 -10 -16 -5 -3 -10 1 -10 9 0 9 5 16 10 16 6 0 10 -4 10 -9z"/>
<path d="M910 140 c0 -30 -4 -40 -16 -40 -10 0 -14 -7 -12 -22 3 -20 9 -23 48
-23 39 0 45 3 48 23 3 17 -2 22 -17 22 -12 0 -21 -6 -21 -15 0 -8 -5 -15 -11
-15 -7 0 -10 20 -7 55 1 30 0 55 -4 55 -5 0 -8 -18 -8 -40z m0 -66 c0 -8 -5
-12 -10 -9 -6 4 -8 11 -5 16 9 14 15 11 15 -7z m60 0 c0 -8 -5 -12 -10 -9 -6
4 -8 11 -5 16 9 14 15 11 15 -7z"/>
<path d="M580 95 c0 -25 5 -45 10 -45 6 0 10 20 10 45 0 25 -4 45 -10 45 -5 0
-10 -20 -10 -45z"/>
<path d="M759 83 c-2 -24 -2 -25 -6 -5 -4 21 -9 23 -71 20 -59 -3 -67 -5 -67
-23 0 -15 8 -21 28 -23 25 -3 28 -1 22 17 -4 12 -2 21 4 21 6 0 11 -10 12 -22
0 -22 1 -22 11 2 l11 25 7 -25 8 -25 2 25 c1 25 1 25 10 3 5 -13 14 -23 20
-23 5 0 10 -11 10 -25 0 -14 5 -25 10 -25 6 0 10 10 10 23 0 12 9 28 20 35 12
7 20 8 20 2 0 -5 12 -10 26 -10 20 0 25 4 20 16 -3 9 -6 20 -6 25 0 5 -12 8
-27 7 -16 -1 -38 2 -50 6 -20 6 -23 4 -24 -21z m-109 -2 c0 -6 -4 -13 -10 -16
-5 -3 -10 1 -10 9 0 9 5 16 10 16 6 0 10 -4 10 -9z m137 -13 c-3 -8 -6 -5 -6
6 -1 11 2 17 5 13 3 -3 4 -12 1 -19z m63 7 c0 -8 -4 -15 -10 -15 -5 0 -10 7
-10 15 0 8 5 15 10 15 6 0 10 -7 10 -15z"/>
<path d="M334 85 c-4 -9 -2 -21 4 -27 15 -15 44 -1 40 19 -4 23 -36 29 -44 8z
m36 -11 c0 -8 -4 -12 -10 -9 -5 3 -10 10 -10 16 0 5 5 9 10 9 6 0 10 -7 10
-16z"/>
</g>
</svg>
